<svg width="18" height="19" viewBox="0 0 18 19" fill="none" xmlns="http://www.w3.org/2000/svg">
        <path d="M1 5H17" stroke="black" stroke-linecap="round" stroke-linejoin="round"/>
        <path d="M3 5H15V17C15 17.3536 14.8595 17.6928 14.6095 17.9428C14.3595 18.1928 14.0203 18.3333 13.6667 18.3333H4.33333C3.97971 18.3333 3.64057 18.1928 3.39052 17.9428C3.14048 17.6928 3 17.3536 3 17V5Z" stroke="black" stroke-linecap="round" stroke-linejoin="round"/>
        <path d="M5.66797 5V4.33333C5.66797 3.44928 6.01916 2.60143 6.64428 1.97631C7.2694 1.35119 8.11725 1 9.0013 1C9.88536 1 10.7332 1.35119 11.3583 1.97631C11.9834 2.60143 12.3346 3.44928 12.3346 4.33333V5" stroke="black" stroke-linecap="round" stroke-linejoin="round"/>
        <path d="M7 9.00195V14.3373" stroke="black" stroke-linecap="round" stroke-linejoin="round"/>
        <path d="M11 9.00195V14.3373" stroke="black" stroke-linecap="round" stroke-linejoin="round"/>
        </svg>