<svg width="44" height="44" viewBox="0 0 44 44" fill="none" xmlns="http://www.w3.org/2000/svg">
<path fill-rule="evenodd" clip-rule="evenodd" d="M34.9578 43.8915L2.259 38.1254C0.772348 37.8632 -0.220671 36.4444 0.0421783 34.9582L5.80762 2.26076C6.0696 0.773386 7.48781 -0.220496 8.97432 0.0420657L41.6727 5.80808C43.1597 6.07064 44.1522 7.48828 43.8906 8.97522L38.1252 41.6731C37.8628 43.1593 36.4447 44.1526 34.9578 43.8915Z" fill="#DB3830"/>
<path fill-rule="evenodd" clip-rule="evenodd" d="M33.9901 27.3535C33.9897 27.7976 34.3355 28.0117 34.8613 28.0117C35.2888 28.0108 35.6342 27.8608 35.804 27.7428V26.8431C35.4733 26.747 35.1962 26.6931 34.8507 26.6931C34.263 26.6931 33.9901 26.9946 33.9901 27.3535ZM37.0741 25.6424V28.0798C37.0741 28.2981 37.0165 28.4202 36.8407 28.5415C36.5678 28.721 35.8878 29.0665 34.7876 29.0665C33.3721 29.0665 32.7347 28.2981 32.7347 27.383C32.7347 26.5523 33.3046 25.8025 34.6755 25.8025C35.1094 25.8025 35.465 25.8555 35.804 25.9533V25.5986C35.804 25.1124 35.5652 24.8445 34.8945 24.8445C34.5883 24.8445 34.2383 24.9271 33.9757 25.0198C33.8397 25.0578 33.7327 25.0779 33.6308 25.0779C33.314 25.0779 33.0557 24.8151 33.0557 24.5186C33.0557 24.3197 33.1295 24.0719 33.4896 23.9246C33.7572 23.8091 34.2866 23.6633 34.8945 23.6633C36.3096 23.6633 37.0741 24.2717 37.0741 25.6424ZM28.9177 24.3492V25.7099H29.0145C29.2236 25.7099 29.3111 25.6804 29.5019 25.4866L30.9506 23.9844C31.1305 23.7897 31.3108 23.7222 31.4899 23.7222C31.8601 23.7222 32.1568 24.0222 32.1568 24.3871C32.1568 24.5581 32.1074 24.7181 31.923 24.8976L30.4553 26.2987L31.9529 27.8506C32.1133 28.0209 32.1757 28.1809 32.1757 28.357C32.1757 28.721 31.8791 29.0176 31.5156 29.0176C31.3302 29.0176 31.1453 28.9452 31.0092 28.7884L29.531 27.1944C29.3465 26.9938 29.2538 26.9754 29.0634 26.9754H28.9177V28.3368C28.9177 28.7168 28.6307 29.0227 28.2513 29.0227C27.8957 29.0227 27.5898 28.7068 27.5898 28.3359V24.3492C27.5898 23.9641 27.8716 23.6633 28.2513 23.6633C28.6156 23.6633 28.9177 23.9641 28.9177 24.3492ZM26.6829 24.4839C26.6829 24.6541 26.6234 24.8487 26.4828 25.0198L24.167 27.7336H26.006C26.3854 27.7336 26.6875 27.977 26.6875 28.357C26.6871 28.7168 26.3854 28.9746 26.006 28.9738H23.2673C22.7871 28.9738 22.4801 28.6671 22.4801 28.2501C22.4801 28.0798 22.5376 27.8802 22.6785 27.7142L24.9944 24.9862H23.2715C22.9032 24.9862 22.5912 24.757 22.5912 24.3828C22.5909 24.0172 22.8927 23.7552 23.2715 23.7552H25.8947C26.3767 23.7552 26.6829 24.061 26.6829 24.4839ZM21.9299 25.1369C21.9298 25.4916 21.637 25.7789 21.2823 25.7789C21.0725 25.7789 20.8594 25.6509 20.7567 25.4815C20.561 25.0982 20.2215 24.9314 19.7979 24.9314C19.2001 24.9314 18.8307 25.2818 18.7713 25.8614C18.748 26.1235 18.753 26.5801 18.7766 26.8396C18.8351 27.4369 19.2097 27.7976 19.7982 27.7976C20.2215 27.7976 20.561 27.6316 20.7567 27.2474C20.8594 27.0773 21.0725 26.9509 21.2824 26.9509C21.637 26.9509 21.9299 27.2382 21.9298 27.5921C21.9298 28.2981 21.0194 29.0665 19.759 29.0665C18.5142 29.0665 17.5562 28.1911 17.4585 27.014C17.4235 26.6636 17.4235 26.0847 17.4585 25.6618C17.5319 24.5 18.4903 23.6633 19.759 23.6633C21.0194 23.6633 21.9299 24.4308 21.9299 25.1369ZM13.4542 27.3535C13.4542 27.7976 13.7996 28.0108 14.3253 28.0108C14.7529 28.0108 15.0977 27.8608 15.269 27.7428V26.8431C14.9377 26.7479 14.6601 26.6931 14.3148 26.6931C13.7261 26.6931 13.4542 26.9938 13.4542 27.3535ZM16.5381 25.6424L16.5382 28.0798C16.5385 28.2981 16.4788 28.4202 16.3047 28.5415C16.0316 28.721 15.3513 29.0665 14.2518 29.0665C12.8364 29.0665 12.1999 28.2981 12.1999 27.383C12.1999 26.5523 12.7683 25.8025 14.1399 25.8025C14.5726 25.8025 14.928 25.8555 15.269 25.9533V25.5986C15.269 25.1124 15.0303 24.8445 14.3586 24.8445C14.0523 24.8445 13.7025 24.9271 13.4402 25.0198C13.3036 25.0578 13.1969 25.0779 13.0954 25.0779C12.7778 25.0788 12.5205 24.8151 12.5208 24.5186C12.5205 24.3197 12.5933 24.0719 12.9531 23.9246C13.2207 23.8091 13.7514 23.6633 14.3585 23.6633C15.7747 23.6633 16.5385 24.2717 16.5381 25.6424ZM8.18999 25.2187L8.19027 27.5305C8.34959 27.6367 8.74473 27.7724 9.14878 27.7724C9.75069 27.7724 10.083 27.4168 10.1215 26.8396C10.146 26.4883 10.146 26.1724 10.1218 25.88C10.0725 25.3198 9.73229 24.9314 9.1045 24.9314C8.78312 24.9314 8.3703 25.0788 8.18999 25.2187ZM11.4388 25.6433C11.4788 26.0409 11.4737 26.6442 11.4388 27.0435C11.3461 28.2104 10.5633 29.0437 9.28869 29.0437C8.90578 29.0437 8.46664 28.9349 8.18999 28.8087L8.19027 29.8812C8.19027 30.2603 7.884 30.5619 7.5238 30.5619C7.13888 30.5619 6.85719 30.2603 6.85719 29.8812V24.6212C6.85719 24.4756 6.89572 24.3778 7.02355 24.2902C7.34349 24.061 8.11651 23.6633 9.11916 23.6633C10.4082 23.6633 11.333 24.4756 11.4388 25.6433ZM17.2185 17.2163C17.2188 16.7715 16.951 16.5052 16.4176 16.5052H16.0624L16.0621 17.9322H16.4176C16.9509 17.9322 17.2185 17.6638 17.2185 17.2163ZM9.91965 14.7267C11.7871 14.7267 13.3019 16.3271 13.3019 18.1991C13.3019 20.0672 11.7871 21.5821 9.91936 21.5821C7.95949 21.5821 6.4435 20.0672 6.44336 18.1991C6.44336 16.3275 7.9592 14.7267 9.91965 14.7267ZM14.0121 14.9038H16.6836C18.3768 14.9038 19.2671 15.7059 19.2671 17.1301C19.2671 18.0179 18.7336 18.6433 18.0208 18.7323L19.7127 21.402H17.1295L16.0624 19.267V21.402H14.0121V14.9038ZM20.3336 14.9038H22.6515L22.6513 19.62H24.6992V21.402H20.3336V14.9038ZM25.4128 14.9038H29.9514V16.5057L27.4571 16.5052V17.3084H28.7933V18.8206H27.4571V19.62H30.2173L30.2177 21.402L25.4128 21.4017V14.9038ZM30.9305 14.9038H32.8889L35.1148 18.2875C35.1148 17.8402 35.0264 17.4859 35.0264 17.2167C35.0264 17.1301 35.0264 17.1301 35.0264 17.0409V14.9038H37.0741V21.402H35.1148L32.8889 18.0185C32.9791 18.3765 32.9791 18.7323 32.9787 18.9991V21.402L30.9305 21.4017V14.9038ZM9.91965 19.5338C10.6307 19.5338 11.2516 18.9081 11.2516 18.1991C11.2513 17.3977 10.6307 16.8633 9.91936 16.8633C9.11744 16.8633 8.49195 17.3977 8.49195 18.1991C8.49195 18.9081 9.11744 19.5338 9.91965 19.5338Z" fill="#FFFFFE"/>
</svg>
