<?xml version="1.0" encoding="UTF-8"?>
<svg id="Warstwa_1" xmlns="http://www.w3.org/2000/svg" version="1.1" viewBox="0 0 24 24">
  <!-- Generator: Adobe Illustrator 29.5.0, SVG Export Plug-In . SVG Version: 2.1.0 Build 137)  -->
  <defs>
    <style>
      .st0 {
        fill: none;
        stroke: #353535;
        stroke-linecap: round;
        stroke-linejoin: round;
        stroke-width: 2px;
      }
    </style>
  </defs>
  <path class="st0" d="M3.13,3h.27c.47,0,.71,0,.9.09.17.08.32.2.42.35.12.17.16.41.25.87l2.16,11.69h10.42c.45,0,.68,0,.87-.08.17-.07.31-.19.42-.33.12-.16.17-.39.27-.83h0l1.57-6.8h0c.15-.67.23-1,.15-1.27-.07-.23-.23-.43-.44-.55-.24-.14-.58-.14-1.27-.14H5.63M18.13,21c-.55,0-1-.45-1-1s.45-1,1-1,1,.45,1,1-.45,1-1,1ZM8.13,21c-.55,0-1-.45-1-1s.45-1,1-1,1,.45,1,1-.45,1-1,1Z"/>
</svg>