                            <svg width="44" height="44" viewBox="0 0 44 44" fill="none" xmlns="http://www.w3.org/2000/svg" class="flex-grow-0 flex-shrink-0 w-[43px] h-11 relative" preserveAspectRatio="none">
                                <path d="M6.771 8.25H10.6941C11.3945 8.25 11.7447 8.25 12.0075 8.44076C12.2703 8.63152 12.3788 8.96452 12.5957 9.63052L13.9377 13.75" stroke="white" stroke-width="1.5" stroke-linecap="round"></path>
                                <path d="M31.8543 32.0834H14.901C13.6428 32.0834 13.0137 32.0834 12.7142 31.6709C12.4148 31.2583 12.6096 30.6602 12.9993 29.4639L13.0382 29.3444C13.4721 28.0124 13.6891 27.3464 14.2146 26.9649C14.7402 26.5834 15.4406 26.5834 16.8415 26.5834H26.4793" stroke="white" stroke-width="1.5" stroke-linecap="round" stroke-linejoin="round"></path>
                                <path d="M27.7147 26.5833H18.3904C17.1002 26.5833 16.4551 26.5833 15.9518 26.2485C15.4485 25.9136 15.1993 25.3186 14.7009 24.1286L12.0959 17.9089C11.3083 16.0284 10.9145 15.0882 11.3597 14.4191C11.8048 13.75 12.8242 13.75 14.863 13.75H32.1176C34.394 13.75 35.5322 13.75 35.9669 14.4907C36.4017 15.2315 35.8467 16.2252 34.7368 18.2127L31.207 24.5336C30.6488 25.5332 30.3696 26.033 29.9009 26.3082C29.4321 26.5833 28.8596 26.5833 27.7147 26.5833Z" stroke="white" stroke-width="1.5" stroke-linecap="round"></path>
                                <ellipse cx="30.9582" cy="36.6667" rx="1.79167" ry="1.83333" stroke="white" stroke-width="1.5" stroke-linecap="round"></ellipse>
                                <ellipse cx="16.6252" cy="36.6667" rx="1.79167" ry="1.83333" stroke="white" stroke-width="1.5" stroke-linecap="round"></ellipse>
                            </svg>