<?xml version="1.0" encoding="UTF-8"?>
<svg id="Warstwa_1" xmlns="http://www.w3.org/2000/svg" version="1.1" viewBox="0 0 24 24">
  <!-- Generator: Adobe Illustrator 29.5.0, SVG Export Plug-In . SVG Version: 2.1.0 Build 137)  -->
  <defs>
    <style>
      .st0 {
        fill: none;
        stroke: #353535;
        stroke-linecap: round;
        stroke-linejoin: round;
        stroke-width: 2px;
      }
    </style>
  </defs>
  <path class="st0" d="M3.03,5.25c-2.06,2.06-2.06,5.4,0,7.45h0l9,9,9-9c2.06-2.06,2.06-5.4,0-7.45s-5.4-2.06-7.45,0h0l-1.55,1.55-1.55-1.55c-2.06-2.06-5.4-2.06-7.45,0h0Z"/>
  <path class="st0" d="M-12.36,21.7c0-2.76-3.71-5-8.29-5s-8.29,2.24-8.29,5M-20.64,13.7c-2.86,0-5.18-2.24-5.18-5s2.32-5,5.18-5,5.18,2.24,5.18,5-2.32,5-5.18,5Z"/>
  <path class="st0" d="M31.57,3.8h.27c.47,0,.71,0,.9.09.17.08.32.2.42.35.12.17.16.41.25.87l2.16,11.69h10.42c.45,0,.68,0,.87-.08.17-.07.31-.19.42-.33.12-.16.17-.39.27-.83h0s1.57-6.8,1.57-6.8h0c.15-.67.23-1,.15-1.27-.07-.23-.23-.43-.44-.55-.24-.14-.58-.14-1.27-.14h-13.49M46.57,21.8c-.55,0-1-.45-1-1s.45-1,1-1,1,.45,1,1-.45,1-1,1ZM36.57,21.8c-.55,0-1-.45-1-1s.45-1,1-1,1,.45,1,1-.45,1-1,1Z"/>
</svg>