<svg width="19" height="19" viewBox="0 0 19 19" fill="none" xmlns="http://www.w3.org/2000/svg">
<path d="M16.2477 15.5646C16.829 14.9849 16.7504 14.0196 16.083 13.5282L13.7748 11.8325C13.2381 11.4377 12.4973 11.4922 12.0299 11.958L11.6346 12.3533C11.5893 12.3985 11.5416 12.4398 11.4919 12.4771C11.3031 12.6659 11.0205 12.7261 10.7708 12.631C8.76363 11.8694 7.37905 10.482 6.613 8.4729C6.51759 8.22276 6.57732 7.94015 6.76693 7.75094L6.8455 7.67237C6.86234 7.65353 6.87957 7.63509 6.89761 7.61705L7.29246 7.2222C7.75987 6.7548 7.81318 6.0144 7.41954 5.47725L5.72268 3.16827C5.23283 2.50204 4.26675 2.42387 3.6867 3.00352L3.27782 3.4124C2.81121 3.8794 2.50415 4.4803 2.40354 5.1297C2.38951 5.21869 2.37988 5.30888 2.37387 5.39948C2.27085 6.9885 2.84368 8.69297 4.01821 10.5005C4.0579 10.5614 4.09798 10.6223 4.13887 10.6837C5.31019 12.4334 6.81944 13.9427 8.56921 15.114C8.62694 15.1525 8.68426 15.1906 8.74198 15.2278C10.5531 16.406 12.2616 16.982 13.8534 16.8782C13.9436 16.8726 14.0338 16.8626 14.1224 16.8489C14.7718 16.7487 15.3735 16.4409 15.8389 15.9755L16.2477 15.565V15.5646Z" fill="white"/>
<path d="M16.6365 9.41516C16.5062 7.65542 15.7471 5.99961 14.4999 4.75204C13.2528 3.50526 11.5969 2.74625 9.83676 2.61555C9.57024 2.59626 9.33797 2.79546 9.31828 3.06237C9.2982 3.32889 9.49859 3.56116 9.76511 3.58085C11.2942 3.69462 12.7323 4.35364 13.8153 5.43665C14.8987 6.52005 15.5578 7.95855 15.6712 9.48681C15.69 9.74113 15.9022 9.93521 16.1534 9.93521C16.1656 9.93521 16.1774 9.93482 16.1896 9.93403C16.4562 9.91435 16.6565 9.68208 16.6365 9.41556V9.41516Z" fill="white"/>
<path d="M12.6914 6.92549C11.9261 6.15989 10.9549 5.68328 9.88307 5.54634C9.60796 5.50996 9.35574 5.70576 9.321 5.98126C9.28584 6.25677 9.48042 6.50815 9.75594 6.54331C10.605 6.65204 11.3743 7.02973 11.9809 7.63633C12.5875 8.24292 12.9653 9.01221 13.074 9.86161C13.1063 10.1154 13.3225 10.3006 13.5719 10.3006C13.5931 10.3006 13.6148 10.2994 13.6365 10.2965C13.912 10.2614 14.1066 10.0096 14.0714 9.73407C13.9345 8.6619 13.4574 7.6911 12.6918 6.9259L12.6914 6.92549Z" fill="white"/>
</svg>
