<svg width="44" height="44" viewBox="0 0 44 44" fill="none" xmlns="http://www.w3.org/2000/svg">
<g clip-path="url(#clip0_24_3781)">
<path d="M28.3981 19.6369C28.2185 19.7408 27.9389 19.7318 27.7638 19.6256L26.7361 19.0179C26.652 18.9659 26.5747 18.8846 26.5179 18.7852C26.5156 18.7807 26.5111 18.7739 26.5088 18.7671C26.4429 18.6609 26.4065 18.548 26.4019 18.4463L26.3747 17.2557C26.3678 17.0546 26.4997 16.8106 26.6793 16.7067L39.0383 9.55186L21.6957 0.155884C21.5047 0.0519614 21.2524 0 21 0C20.7476 0 20.4953 0.0519614 20.3043 0.155884L2.95944 9.5496L22.3891 20.7891C22.5687 20.8862 22.7052 21.1189 22.7052 21.329V37.7262C22.7052 37.9318 22.5574 38.169 22.3755 38.2639L21.3297 38.84C21.2433 38.8852 21.1319 38.91 21.0159 38.91H20.9955C20.8704 38.9123 20.7522 38.8875 20.6612 38.84L19.6131 38.2639C19.4358 38.169 19.288 37.9318 19.288 37.7262V23.1093C19.2789 23.0031 19.1994 22.872 19.113 22.8223L2 12.9203V32.3155C2 32.7492 2.30693 33.2847 2.68434 33.5038L20.3134 43.8351C20.5021 43.9458 20.7499 44 20.9977 43.9977C21.2455 43.9977 21.4934 43.9458 21.6821 43.8351L39.3134 33.5038C39.6885 33.2824 39.9977 32.7492 39.9954 32.3155V12.9203L28.3936 19.6369H28.3981Z" fill="url(#paint0_linear_24_3781)"/>
</g>
<defs>
<linearGradient id="paint0_linear_24_3781" x1="2.24181" y1="37.548" x2="21.4633" y2="21.3164" gradientUnits="userSpaceOnUse">
<stop stop-color="#A90034"/>
<stop offset="0.27" stop-color="#BB0033"/>
<stop offset="0.72" stop-color="#D30032"/>
<stop offset="1" stop-color="#DC0032"/>
</linearGradient>
<clipPath id="clip0_24_3781">
<rect width="38" height="44" fill="white" transform="translate(2)"/>
</clipPath>
</defs>
</svg>
