<?xml version="1.0" encoding="UTF-8"?><svg id="Layer_1" xmlns="http://www.w3.org/2000/svg" viewBox="0 0 1000 600"><defs><style>.cls-1{fill:#282560;stroke-width:0px;}</style></defs><path class="cls-1" d="M375.17,145.27c.68.73,1.35,1.47,2.01,2.18.25.28.51.53.75.77l5.72,5.51c.44.44.9.84,1.35,1.23l5.78,4.97c.19.17.39.33.61.51l6.26,4.79c5.55,4.07,11.45,7.85,17.54,11.25,4.16,2.32,6.2,7.17,4.96,11.79l-7.77,28.94c-1.95,7.27-4.6,14.4-7.87,21.19l-25.34,52.64c-1.25,2.6-.32,5.72,2.12,7.1,1.31.74,2.81.9,4.23.45,1.41-.44,2.58-1.46,3.22-2.78l24.65-51.21,18.28,58.71c.7,2.25,2.75,3.76,5.1,3.76.54,0,1.07-.08,1.59-.24,2.81-.88,4.39-3.88,3.52-6.69l-11.38-36.56c-6.85-22-7.31-45.38-1.33-67.64.75-2.79,2.64-5.17,5.2-6.53,2.57-1.36,5.48-1.59,8.22-.64,13.7,4.74,28.01,7.77,42.53,9.01,5.44.46,9.54,4.93,9.54,10.38v2.05c0,17.91-4.06,35.94-11.74,52.12l-10.05,21.16c-.61,1.29-.69,2.74-.21,4.09.48,1.35,1.45,2.42,2.74,3.04,1.29.61,2.74.69,4.09.21,1.35-.48,2.42-1.45,3.04-2.74l17.48-36.82,17.48,36.82c.88,1.86,2.78,3.05,4.83,3.05.8,0,1.57-.17,2.29-.52,1.29-.61,2.26-1.69,2.74-3.04.48-1.35.41-2.8-.21-4.09l-10.05-21.17c-7.68-16.18-11.74-34.2-11.74-52.12v-2.04c0-5.46,4.1-9.92,9.54-10.38,14.52-1.23,28.83-4.26,42.53-9.01,2.73-.95,5.65-.72,8.22.64,2.55,1.35,4.45,3.73,5.2,6.53,5.97,22.25,5.51,45.64-1.33,67.63l-11.38,36.56c-.88,2.81.7,5.82,3.52,6.69.52.16,1.05.24,1.59.24,2.35,0,4.4-1.51,5.1-3.76l18.28-58.71,24.65,51.21c.62,1.29,1.7,2.26,3.05,2.73,1.35.47,2.8.39,4.08-.23,1.29-.62,2.26-1.7,2.73-3.05.47-1.35.39-2.8-.23-4.09l-25.4-52.76c-3.27-6.79-5.91-13.92-7.87-21.19l-7.77-28.93c-1.24-4.62.8-9.47,4.96-11.79,6.09-3.39,11.99-7.18,17.54-11.25,0,0,.01-.01.02-.02l6.26-4.8c.2-.16.39-.33.58-.49l3.7-3.18,2.08-1.8c.45-.39.91-.79,1.33-1.21.74-.72,1.49-1.44,2.24-2.16,1.38-1.33,2.81-2.7,4.19-4.08.01-.01.03-.03.04-.04.68-.74,1.36-1.48,2.03-2.21,1.32-1.43,2.68-2.9,3.99-4.38.43-.48.42-1.21-.03-1.67-.44-.47-1.17-.51-1.67-.11-1.51,1.22-3.02,2.47-4.47,3.68-.8.66-1.59,1.32-2.36,1.96-1.5,1.17-3.04,2.34-4.53,3.48-.83.63-1.66,1.26-2.51,1.91-.41.33-.85.62-1.31.94l-6.18,4.29c-.18.13-.37.26-.53.37l-6.5,4.1c-9.99,6.07-20.48,11.23-31.18,15.32-21.63,8.31-44.36,12.53-67.56,12.55-23.19,0-45.92-4.22-67.56-12.54-10.7-4.09-21.19-9.25-31.16-15.31l-6.49-4.1c-.19-.12-.37-.25-.55-.38l-3.94-2.75-2.24-1.55c-.46-.32-.9-.62-1.33-.96-.82-.63-1.65-1.26-2.48-1.89-1.49-1.13-3.03-2.31-4.51-3.46-.79-.65-1.58-1.31-2.37-1.97-1.46-1.22-2.98-2.48-4.49-3.7-.5-.4-1.23-.36-1.67.11-.44.47-.45,1.19-.02,1.67,1.32,1.47,2.68,2.95,4,4.38Z"/><path class="cls-1" d="M500,182.84c7.71,0,13.98-6.27,13.98-13.98s-6.27-13.98-13.98-13.98-13.98,6.27-13.98,13.98,6.27,13.98,13.98,13.98Z"/><path class="cls-1" d="M562.12,168.03c8.62,0,15.63-7.01,15.63-15.63s-7.01-15.63-15.63-15.63-15.63,7.01-15.63,15.63,7.01,15.63,15.63,15.63Z"/><path class="cls-1" d="M437.88,168.03c8.62,0,15.63-7.01,15.63-15.63s-7.01-15.63-15.63-15.63-15.63,7.01-15.63,15.63,7.01,15.63,15.63,15.63Z"/><path class="cls-1" d="M674.98,353.8c3.88.6,7.73,1.3,11.6,1.99-1.88-.58-3.76-1.13-5.65-1.65-1.89-.53-3.79-1.05-5.68-1.55-1.9-.5-3.8-.99-5.71-1.45l-5.72-1.41c-7.64-1.82-15.32-3.49-23.04-5.02-15.42-3.05-30.95-5.63-46.55-7.65-1.95-.25-3.9-.54-5.85-.77l-5.86-.68-5.87-.66c-1.96-.22-3.91-.45-5.87-.61l-11.76-1.07-2.94-.26c-.98-.08-1.96-.14-2.95-.21l-5.89-.4-5.89-.39c-1.96-.13-3.93-.26-5.9-.33l-11.81-.5-2.95-.12-1.48-.06-1.48-.02-5.91-.09-11.82-.17-11.82.17-5.91.09-1.48.02-1.48.06-2.95.11-11.81.5c-1.97.07-3.93.2-5.9.33l-5.89.39-5.89.4c-.98.07-1.96.13-2.95.21l-2.94.26-11.76,1.07c-1.96.17-3.92.4-5.87.61l-5.87.66-5.86.68c-1.95.23-3.9.51-5.85.77-15.61,2.02-31.13,4.6-46.55,7.65-7.71,1.53-15.39,3.2-23.03,5.02l-5.72,1.41c-1.91.47-3.81.95-5.71,1.46-1.9.5-3.79,1.02-5.68,1.55-1.89.52-3.78,1.07-5.65,1.65,3.87-.69,7.72-1.38,11.6-1.98,3.86-.66,7.74-1.24,11.61-1.85,7.75-1.14,15.5-2.28,23.26-3.27,15.52-2.03,31.05-3.83,46.61-5.21,1.94-.18,3.89-.39,5.83-.55l5.84-.46,5.84-.48c1.95-.16,3.89-.33,5.84-.44l11.68-.76,2.92-.2c.97-.06,1.95-.1,2.92-.14l5.85-.28,5.84-.29c1.95-.1,3.9-.21,5.85-.25l11.7-.35,2.92-.1,1.46-.05,1.46-.02,5.85-.06,11.7-.12c15.59.12,31.19.37,46.78,1.22l5.85.28c.97.05,1.95.09,2.92.14l2.92.2,11.68.76c1.95.11,3.89.28,5.84.44l5.84.48,5.84.46c1.95.16,3.89.37,5.83.55,15.56,1.38,31.1,3.18,46.61,5.21,7.76,1,15.5,2.14,23.26,3.27,3.87.61,7.75,1.19,11.61,1.85Z"/><path class="cls-1" d="M392.46,395.4c-2.43,2.65-5.38,6.09-8.84,10.33-3.46,4.24-7.03,8.84-10.72,13.81-3.68,4.97-7.31,10.09-10.88,15.36-3.57,5.27-6.72,10.26-9.45,14.97h41.09v11.82h-57.89v-8.73c1.47-2.72,3.18-5.69,5.14-8.89,1.95-3.2,4.03-6.5,6.24-9.89,2.21-3.39,4.51-6.81,6.9-10.27,2.39-3.46,4.77-6.79,7.13-10,2.36-3.2,4.66-6.26,6.9-9.17,2.25-2.91,4.36-5.5,6.35-7.79h-36.79v-11.82h54.79v10.27Z"/><path class="cls-1" d="M447.61,459.91c-2.65.81-5.98,1.55-10,2.21-4.01.66-8.23.99-12.65.99s-8.65-.7-12.26-2.1c-3.61-1.4-6.68-3.41-9.22-6.02-2.54-2.61-4.49-5.78-5.85-9.5-1.36-3.72-2.04-7.9-2.04-12.54s.57-8.71,1.71-12.43c1.14-3.72,2.82-6.9,5.03-9.56,2.21-2.65,4.9-4.69,8.06-6.13,3.17-1.44,6.81-2.15,10.94-2.15,2.8,0,5.26.33,7.4.99,2.13.66,3.98,1.4,5.52,2.21v-27.73l13.37-2.21v83.96ZM409.28,432.62c0,5.89,1.4,10.51,4.2,13.86,2.8,3.35,6.66,5.03,11.6,5.03,2.13,0,3.96-.09,5.47-.28,1.51-.18,2.74-.39,3.7-.61v-33.14c-1.18-.81-2.74-1.56-4.69-2.26-1.95-.7-4.03-1.05-6.24-1.05-4.86,0-8.41,1.66-10.66,4.97-2.25,3.31-3.37,7.81-3.37,13.48Z"/><path class="cls-1" d="M490.46,415.94c-1.1-.37-2.63-.75-4.58-1.16-1.95-.4-4.22-.61-6.79-.61-1.47,0-3.04.15-4.69.44-1.66.3-2.82.55-3.48.77v46.29h-13.37v-55.01c2.58-.96,5.8-1.86,9.67-2.71,3.87-.85,8.16-1.27,12.87-1.27.88,0,1.91.06,3.09.17,1.18.11,2.36.26,3.53.44,1.18.18,2.32.41,3.42.66,1.1.26,1.99.5,2.65.72l-2.32,11.27Z"/><path class="cls-1" d="M547.33,432.73c0,4.57-.66,8.73-1.99,12.48-1.33,3.76-3.2,6.96-5.63,9.61-2.43,2.65-5.36,4.71-8.78,6.19-3.42,1.47-7.2,2.21-11.32,2.21s-7.88-.74-11.27-2.21c-3.39-1.47-6.3-3.54-8.73-6.19-2.43-2.65-4.33-5.86-5.69-9.61-1.36-3.76-2.04-7.92-2.04-12.48s.68-8.71,2.04-12.43c1.36-3.72,3.28-6.9,5.74-9.56,2.47-2.65,5.39-4.69,8.78-6.13,3.39-1.44,7.11-2.15,11.16-2.15s7.79.72,11.21,2.15c3.42,1.44,6.35,3.48,8.78,6.13,2.43,2.65,4.33,5.84,5.69,9.56,1.36,3.72,2.04,7.86,2.04,12.43ZM533.63,432.73c0-5.74-1.23-10.29-3.7-13.64-2.47-3.35-5.91-5.03-10.33-5.03s-7.86,1.68-10.33,5.03c-2.47,3.35-3.7,7.9-3.7,13.64s1.23,10.42,3.7,13.81c2.47,3.39,5.91,5.08,10.33,5.08s7.86-1.69,10.33-5.08c2.47-3.39,3.7-7.99,3.7-13.81Z"/><path class="cls-1" d="M568.19,461.68c-3.7-7.58-7.49-16.29-11.37-26.13-3.88-9.83-7.41-20.38-10.59-31.65h14.26c.81,3.24,1.76,6.72,2.83,10.44,1.07,3.72,2.22,7.44,3.44,11.16,1.22,3.72,2.48,7.33,3.77,10.83,1.29,3.5,2.5,6.65,3.61,9.45,1.11-2.8,2.29-5.95,3.55-9.45,1.26-3.5,2.5-7.11,3.72-10.83,1.22-3.72,2.38-7.44,3.49-11.16,1.11-3.72,2.07-7.2,2.88-10.44h13.81c-3.18,11.27-6.71,21.82-10.59,31.65-3.88,9.83-7.67,18.54-11.37,26.13h-11.43Z"/><path class="cls-1" d="M620.2,387c0,2.5-.81,4.49-2.43,5.97-1.62,1.47-3.54,2.21-5.74,2.21s-4.24-.74-5.85-2.21c-1.62-1.47-2.43-3.46-2.43-5.97s.81-4.6,2.43-6.08c1.62-1.47,3.57-2.21,5.85-2.21s4.12.74,5.74,2.21c1.62,1.47,2.43,3.5,2.43,6.08ZM618.76,461.68h-13.37v-57.78h13.37v57.78Z"/><path class="cls-1" d="M627.98,388.66l13.37-2.21v17.45h20.55v11.16h-20.55v23.53c0,4.64.74,7.95,2.21,9.94,1.47,1.99,3.98,2.98,7.51,2.98,2.43,0,4.58-.26,6.46-.77,1.88-.51,3.37-.99,4.47-1.44l2.21,10.61c-1.55.66-3.57,1.34-6.08,2.04-2.5.7-5.45,1.05-8.84,1.05-4.13,0-7.57-.55-10.33-1.66-2.76-1.1-4.95-2.71-6.57-4.81-1.62-2.1-2.76-4.64-3.42-7.62s-.99-6.39-.99-10.22v-50.04Z"/></svg>