<?xml version="1.0" standalone="no"?>
<!DOCTYPE svg PUBLIC "-//W3C//DTD SVG 20010904//EN"
 "http://www.w3.org/TR/2001/REC-SVG-20010904/DTD/svg10.dtd">
<svg version="1.0" xmlns="http://www.w3.org/2000/svg"
 width="192.000000pt" height="192.000000pt" viewBox="0 0 192.000000 192.000000"
 preserveAspectRatio="xMidYMid meet">
<metadata>
Created by potrace 1.14, written by Peter Selinger 2001-2017
</metadata>
<g transform="translate(0.000000,192.000000) scale(0.100000,-0.100000)"
fill="#000000" stroke="none">
<path d="M830 1820 c9 -19 10 -22 0 -13 -7 6 -19 9 -28 6 -11 -5 -13 -2 -7 8
6 11 5 12 -6 2 -17 -16 -76 -17 -81 -1 -3 7 -7 5 -11 -6 -4 -9 -3 -15 1 -12 4
2 14 0 22 -6 12 -8 11 -9 -4 -4 -14 5 -17 2 -12 -11 5 -16 4 -16 -9 1 -8 10
-12 23 -9 27 3 5 0 9 -5 9 -6 0 -11 -8 -11 -18 0 -9 -10 -23 -22 -31 -23 -14
-23 -14 -4 8 16 18 17 21 3 21 -8 0 -17 -6 -20 -12 -3 -10 -8 -10 -18 1 -12
12 -12 13 1 6 12 -6 13 -5 3 5 -18 20 -29 3 -14 -22 10 -16 10 -19 -1 -12 -18
12 -91 11 -100 -1 -5 -6 -8 -4 -8 4 0 11 -4 10 -16 -5 -13 -16 -15 -16 -10 -1
3 9 1 17 -4 17 -6 0 -10 -4 -10 -10 0 -5 -5 -9 -11 -7 -6 1 -14 -4 -16 -11 -3
-8 1 -10 11 -6 9 3 16 1 16 -6 0 -6 -4 -9 -9 -6 -12 8 -43 -29 -34 -39 5 -4 2
-5 -5 -1 -9 6 -10 11 -2 21 8 9 6 14 -5 19 -10 3 -13 2 -10 -5 4 -5 0 -20 -8
-33 -13 -19 -13 -23 -2 -23 8 0 12 4 9 9 -3 4 2 5 12 1 14 -5 15 -7 1 -15 -21
-11 -11 -39 11 -31 10 3 8 -1 -6 -11 -12 -10 -20 -22 -17 -27 4 -5 0 -9 -7 -9
-8 0 -6 -5 5 -11 9 -6 15 -15 11 -21 -4 -6 2 -8 17 -4 13 3 18 3 12 0 -16 -7
-17 -25 -1 -22 6 2 13 -6 15 -17 l3 -20 -9 20 c-5 11 -10 16 -10 11 -1 -5 -8
-3 -16 4 -9 7 -18 10 -22 6 -3 -3 -1 -6 6 -6 7 0 9 -5 6 -10 -4 -6 -1 -9 6 -8
6 2 14 -3 17 -11 3 -8 0 -11 -7 -7 -7 5 -9 1 -5 -8 3 -9 10 -16 16 -16 5 0 7
4 4 8 -2 4 4 8 15 8 17 0 18 -2 6 -11 -17 -13 -44 -60 -28 -51 15 10 14 -7 -1
-23 -9 -10 -9 -12 -1 -7 6 3 14 2 17 -3 6 -9 33 -6 66 6 27 10 40 11 35 3 -3
-5 -1 -11 5 -15 5 -3 10 -1 10 4 0 6 5 11 11 11 5 0 8 -4 4 -9 -3 -5 -1 -13 5
-16 6 -4 10 -3 9 2 -3 18 1 36 8 30 3 -4 12 -2 20 5 11 9 12 7 7 -8 -4 -10 -4
-16 1 -12 4 4 15 2 23 -5 13 -10 14 -9 8 2 -6 9 -5 12 5 9 8 -3 22 -1 31 3 10
6 19 5 23 -1 9 -15 22 -12 29 6 3 8 2 13 -2 10 -5 -3 -9 1 -9 9 0 8 4 12 8 9
4 -2 9 -1 12 3 2 5 2 2 1 -4 -2 -7 0 -13 4 -13 5 0 14 6 21 13 10 10 11 9 6
-4 -4 -10 -1 -20 6 -25 7 -4 10 -3 5 4 -3 6 -2 13 4 17 6 4 7 12 4 18 -5 8 -3
8 7 0 14 -14 53 -18 45 -5 -2 4 4 8 14 8 10 0 16 -4 14 -8 -8 -13 11 -9 25 5
11 10 13 10 7 0 -5 -8 -1 -13 9 -13 10 0 13 -5 9 -12 -4 -7 1 -6 12 3 20 17
44 15 44 -3 0 -7 -5 -6 -14 1 -11 9 -15 8 -20 -5 -9 -23 -7 -31 4 -14 8 13 11
12 25 -5 15 -20 15 -20 8 0 -6 18 -5 19 12 5 11 -9 16 -10 11 -2 -4 7 -1 12 9
12 9 0 13 -4 10 -10 -4 -6 5 -10 20 -10 18 0 24 4 18 13 -4 6 7 1 24 -13 17
-14 28 -28 26 -32 -2 -5 0 -8 6 -8 5 0 11 5 13 12 3 9 6 9 12 0 4 -7 2 -12 -5
-12 -8 0 -7 -5 2 -17 13 -17 12 -17 -6 -3 -11 8 -28 23 -38 35 -17 20 -17 20
-6 -7 6 -14 20 -29 31 -31 10 -3 18 -9 17 -14 -3 -14 13 -43 24 -43 5 0 2 9
-8 20 -16 18 -16 20 -2 20 10 0 16 -6 15 -12 -2 -7 3 -12 11 -10 11 2 12 0 3
-11 -16 -19 -3 -30 17 -15 12 10 12 8 -1 -8 -17 -19 -17 -21 0 -38 16 -16 16
-17 0 -10 -10 3 -18 3 -18 -1 0 -4 8 -14 18 -22 15 -12 13 -12 -10 -2 -19 8
-25 16 -18 23 12 15 6 49 -9 52 -7 2 -7 1 -1 -3 7 -3 5 -13 -7 -26 -16 -19
-16 -20 0 -8 10 8 17 9 17 3 0 -6 -5 -14 -10 -17 -8 -5 -8 -11 -1 -19 6 -7 8
-16 4 -20 -4 -4 -1 -5 7 -3 8 2 12 2 7 0 -4 -3 -4 -9 -1 -15 4 -7 0 -7 -12 -1
-11 5 -26 9 -34 8 -8 0 -18 3 -21 8 -3 5 -9 2 -12 -6 -4 -11 -1 -15 12 -12 10
2 24 0 31 -5 7 -4 -5 -7 -29 -6 -22 1 -46 7 -53 14 -9 9 -6 11 10 7 12 -2 22
0 22 6 0 11 -29 7 -50 -6 -8 -5 -19 -10 -25 -11 -5 -1 -14 -3 -20 -5 -5 -2
-11 1 -12 6 -2 6 8 10 21 9 18 -1 23 3 18 14 -4 11 -2 13 8 7 9 -6 11 -4 5 5
-6 10 -11 9 -23 -6 -10 -13 -16 -15 -19 -6 -3 6 -9 12 -14 12 -6 0 -7 -4 -4
-10 3 -5 2 -10 -4 -10 -5 0 -12 6 -14 13 -4 10 -6 9 -6 0 -1 -7 -6 -13 -12
-13 -6 0 -8 8 -5 18 5 15 4 15 -6 2 -7 -8 -19 -15 -27 -15 -8 0 -17 -7 -19
-15 -5 -13 -3 -13 11 -1 10 7 17 9 17 3 0 -19 -32 -23 -37 -4 -2 10 -13 24
-25 31 -16 10 -18 10 -12 0 5 -9 2 -10 -9 -6 -9 3 -16 3 -16 -1 3 -20 -2 -42
-10 -42 -6 0 -8 9 -6 21 3 17 2 19 -10 9 -8 -7 -13 -16 -10 -20 2 -4 -12 -5
-31 -3 -27 3 -34 0 -28 -9 5 -10 4 -10 -6 -1 -7 6 -20 9 -29 6 -13 -5 -12 -2
4 18 11 13 13 18 4 11 -9 -6 -20 -8 -24 -4 -5 4 -5 2 -1 -5 5 -9 -3 -11 -28
-9 -34 4 -40 -4 -22 -32 7 -11 4 -12 -13 -3 -17 10 -22 9 -27 -4 -3 -8 -10
-13 -14 -10 -5 3 -13 -3 -19 -12 -14 -24 -14 -7 0 18 5 11 14 17 20 14 5 -4 9
-1 9 4 0 20 -18 11 -45 -21 -15 -18 -25 -25 -21 -15 9 28 -9 19 -22 -10 -10
-26 -11 -26 -6 -3 4 18 3 21 -4 11 -5 -7 -15 -10 -22 -6 -9 6 -9 3 -1 -13 14
-26 14 -43 0 -19 -8 13 -15 15 -28 7 -10 -5 -21 -6 -25 -3 -3 3 -6 1 -6 -5 0
-14 6 -15 29 -3 13 7 18 6 18 -4 0 -7 -7 -11 -15 -7 -10 3 -13 1 -8 -7 4 -6 4
-11 -1 -10 -16 4 -43 -13 -37 -23 4 -6 -2 -6 -14 1 -18 10 -20 8 -17 -24 1
-19 -2 -32 -7 -29 -4 3 -6 9 -3 14 3 5 0 12 -6 16 -8 4 -9 3 -5 -4 6 -11 -6
-16 -26 -13 -15 2 -8 -17 8 -23 10 -4 13 -2 8 6 -4 7 -3 8 4 4 21 -13 13 -27
-12 -22 -18 3 -23 1 -19 -10 3 -8 10 -11 16 -7 6 4 7 1 3 -6 -6 -9 -13 -8 -29
6 -14 12 -18 13 -10 2 10 -12 9 -20 -2 -36 -8 -12 -12 -29 -9 -37 5 -12 2 -15
-12 -10 -18 5 -18 5 0 -6 15 -10 20 -9 27 1 6 10 9 10 9 2 0 -7 -10 -17 -21
-24 -17 -9 -20 -8 -14 2 5 8 4 10 -4 5 -9 -6 -9 -11 -1 -21 18 -22 19 -66 3
-72 -10 -4 -11 -8 -3 -13 17 -11 21 -62 4 -56 -8 3 -14 1 -14 -4 0 -9 15 -14
33 -11 5 1 6 -3 2 -9 -3 -6 -11 -8 -16 -5 -5 4 -6 -2 -2 -11 5 -13 3 -16 -10
-11 -11 4 -14 2 -10 -8 3 -8 9 -12 14 -9 5 3 9 -2 9 -11 0 -9 -4 -13 -10 -10
-6 4 -7 -1 -3 -11 5 -13 3 -15 -7 -9 -9 5 -7 0 3 -16 20 -27 22 -70 5 -87 -9
-9 -9 -12 0 -12 7 0 12 6 12 13 0 8 4 7 11 -3 8 -12 9 -11 5 5 -7 24 8 53 18
36 4 -6 2 -11 -3 -11 -6 0 -11 -5 -11 -11 0 -5 4 -8 9 -5 5 4 8 -2 6 -11 -2
-10 -4 -22 -4 -26 -1 -5 -6 -5 -13 -1 -7 5 -8 3 -4 -5 6 -9 13 -8 29 6 12 9
16 11 9 3 -20 -23 -15 -50 11 -51 12 -1 24 -1 27 -1 3 0 6 -13 6 -29 1 -16 -3
-29 -8 -29 -5 0 -6 -5 -3 -11 5 -6 12 -4 22 8 8 10 12 12 8 6 -3 -7 -2 -13 4
-13 5 0 12 6 14 13 4 9 6 9 6 0 1 -6 -3 -15 -9 -18 -5 -3 -10 -11 -10 -17 0
-6 7 -5 17 3 14 12 16 12 8 0 -6 -11 -4 -13 8 -8 9 3 19 2 22 -4 4 -5 10 -7
15 -4 5 3 14 -3 20 -14 7 -14 7 -22 -2 -27 -7 -5 -8 -3 -3 6 5 9 4 11 -3 6 -8
-5 -10 -1 -5 11 5 15 4 16 -8 5 -11 -10 -9 -16 10 -35 13 -12 21 -16 17 -9 -4
6 -3 12 3 12 5 0 16 3 25 6 12 4 16 0 16 -16 0 -17 4 -21 18 -15 39 15 49 14
47 -8 -2 -31 5 -40 21 -26 10 8 14 8 14 0 0 -6 5 -11 11 -11 8 0 7 5 -1 15
-11 13 -11 18 0 28 10 9 11 9 6 0 -4 -7 2 -21 13 -32 17 -17 20 -17 25 -4 4 9
9 13 13 10 3 -4 13 -1 21 6 13 10 14 9 4 -10 -9 -16 -9 -24 0 -29 7 -4 8 -3 4
4 -5 8 1 11 18 10 16 -2 26 -9 26 -18 0 -13 2 -13 10 0 9 15 -7 33 -22 24 -4
-3 -8 0 -8 6 0 8 7 9 18 5 9 -4 22 -8 29 -8 9 0 9 -5 1 -21 -10 -18 -9 -19 4
-9 8 7 18 10 22 6 4 -4 16 3 27 17 11 14 17 18 14 9 -4 -10 0 -16 10 -16 8 0
15 5 15 10 0 6 3 7 7 4 3 -4 11 -3 17 3 8 6 12 2 13 -13 0 -12 -1 -16 -4 -10
-3 9 -10 10 -21 4 -9 -5 -24 -7 -32 -6 -10 2 -16 -5 -16 -17 0 -17 2 -17 11
-4 9 12 14 13 25 3 10 -9 11 -9 5 1 -5 10 -1 13 16 10 13 -2 27 -7 31 -13 5
-6 8 -5 8 4 0 10 3 11 13 2 10 -8 14 -7 14 3 0 8 -8 13 -17 11 -9 -2 -17 3
-17 10 0 8 5 11 11 7 16 -10 70 -9 77 1 3 5 9 1 12 -8 5 -10 3 -14 -5 -9 -6 4
-8 3 -4 -4 3 -6 18 -9 32 -6 18 3 23 1 18 -7 -8 -14 11 -4 39 19 9 8 20 12 24
8 4 -4 1 -11 -6 -15 -8 -6 -9 -11 -3 -15 6 -3 13 2 17 13 8 25 35 36 35 14 0
-9 3 -13 7 -10 3 4 12 2 19 -4 10 -8 12 -6 9 10 -2 11 1 24 7 27 6 4 8 2 4 -4
-3 -6 -2 -13 4 -17 5 -3 10 2 10 12 0 15 2 15 9 3 6 -8 7 -19 3 -25 -3 -6 0
-6 9 1 8 6 22 10 32 9 9 -2 15 0 13 4 -3 4 -1 13 5 21 7 12 9 11 10 -5 1 -11
1 -24 -1 -30 -1 -5 7 -2 17 6 10 9 30 15 45 14 24 -2 26 0 17 18 -7 12 -7 17
-1 13 6 -3 12 -3 15 1 2 5 2 2 1 -4 -2 -7 1 -13 7 -13 6 0 7 -6 3 -12 -6 -9
-3 -9 9 0 9 8 20 11 25 9 11 -7 26 3 40 28 11 18 12 17 8 -9 -5 -27 -4 -28 14
-11 10 9 23 14 29 11 5 -4 12 -2 15 3 4 5 1 13 -5 17 -8 5 -9 3 -4 -6 6 -9 4
-11 -4 -6 -12 8 -7 21 7 21 4 0 14 4 22 10 13 8 13 7 1 -8 -9 -12 -10 -17 -2
-17 7 0 10 -4 6 -9 -3 -5 0 -13 6 -17 7 -4 9 -3 5 4 -3 6 -2 13 3 17 6 3 7 13
4 23 -6 15 -5 15 10 3 18 -15 24 -2 6 16 -7 7 -3 10 14 8 19 -2 23 2 22 19 -1
11 3 24 9 28 7 5 7 8 -2 8 -7 0 -11 4 -7 9 3 5 1 12 -4 16 -6 3 -8 -3 -6 -14
3 -15 0 -18 -13 -14 -11 5 -12 8 -4 11 10 3 10 7 0 20 -10 12 -10 14 0 8 7 -4
12 -1 12 8 0 9 5 16 11 16 6 0 4 7 -4 14 -8 9 -13 28 -11 46 3 22 0 29 -9 24
-9 -5 -9 -4 1 7 6 7 12 17 12 22 0 4 -6 5 -12 1 -10 -6 -10 -5 -1 7 9 12 10
18 1 27 -8 8 -8 15 1 26 9 11 9 15 -1 19 -9 4 -9 6 -1 6 16 1 26 -16 13 -24
-15 -9 -12 -25 4 -19 13 5 14 39 1 52 -2 3 1 12 8 20 10 13 9 15 -4 10 -9 -3
-16 -1 -16 5 0 7 -4 20 -8 31 -6 14 -5 17 6 14 8 -3 13 -12 11 -22 -2 -10 4
-16 15 -16 14 0 15 2 5 9 -8 4 -13 11 -13 15 3 23 0 36 -8 32 -5 -4 -7 2 -4
13 3 10 0 22 -6 25 -6 4 -11 13 -11 19 0 9 2 9 8 0 6 -10 12 -10 28 2 16 13
16 14 2 9 -11 -4 -18 -1 -18 6 0 6 -5 8 -12 4 -6 -4 -8 -3 -5 4 4 5 16 8 26 5
25 -6 32 7 17 36 -11 20 -14 21 -19 7 -4 -10 -3 -15 2 -12 5 3 11 -1 15 -9 3
-9 0 -15 -9 -15 -8 0 -15 5 -15 11 0 5 -6 7 -12 3 -10 -6 -10 -4 0 7 6 7 12
23 12 36 0 13 5 23 11 23 6 0 4 7 -4 14 -8 9 -13 28 -11 46 3 22 0 29 -9 24
-9 -5 -9 -4 1 7 15 16 16 33 0 23 -7 -4 -8 -3 -4 5 12 19 26 2 22 -28 -2 -18
2 -28 10 -28 9 0 10 5 4 17 -5 10 -7 20 -4 23 8 8 -21 48 -29 42 -4 -3 -5 -2
-1 2 3 4 15 8 26 8 12 0 22 7 24 18 1 9 -2 15 -7 11 -5 -3 -7 -10 -4 -15 4 -5
-1 -9 -9 -9 -9 0 -16 5 -16 11 0 5 -6 7 -12 3 -10 -6 -10 -4 0 8 10 13 10 17
0 21 -10 4 -10 6 1 6 11 1 11 4 1 16 -7 9 -10 18 -6 22 3 3 6 1 6 -6 0 -7 5
-9 12 -5 6 4 8 3 5 -3 -3 -5 0 -10 8 -10 19 0 19 0 -4 26 -11 13 -17 30 -14
38 5 12 3 14 -8 8 -11 -6 -12 -5 -1 6 6 7 12 22 12 32 0 11 7 25 17 32 13 9
13 14 3 20 -9 5 -11 4 -6 -3 4 -7 2 -12 -3 -12 -6 0 -11 7 -11 15 0 8 3 15 8
15 4 0 8 12 9 27 l1 28 -15 -25 c-8 -14 -12 -17 -9 -7 3 10 6 25 6 33 0 9 5
12 13 8 9 -5 9 -4 0 6 -6 7 -9 19 -6 26 3 8 0 14 -5 14 -6 0 -9 -9 -7 -20 2
-11 0 -22 -5 -25 -4 -3 -7 3 -5 12 1 10 -3 24 -9 32 -8 11 -8 13 2 7 6 -4 12
-3 12 3 0 6 8 8 18 5 14 -5 14 -4 2 4 -8 6 -18 8 -22 6 -4 -3 -8 2 -8 11 0 10
-5 13 -12 9 -6 -4 -8 -3 -5 3 4 6 -1 14 -10 17 -12 5 -13 10 -5 18 8 8 7 15
-6 25 -15 13 -14 13 6 3 20 -10 21 -14 10 -28 -11 -13 -11 -15 4 -9 10 3 20 1
24 -5 5 -7 2 -8 -7 -3 -12 8 -12 6 0 -8 7 -9 21 -17 30 -16 15 0 15 1 0 7 -9
4 -15 15 -13 25 1 11 0 16 -3 13 -12 -11 -54 59 -51 85 1 15 -4 34 -11 43 -11
13 -11 19 0 34 12 15 12 16 -2 5 -11 -9 -18 -10 -27 -1 -8 8 -15 8 -27 -2 -10
-8 -15 -9 -15 -1 0 6 5 11 10 11 6 0 10 7 10 15 0 8 5 15 12 15 6 0 9 3 5 6
-3 3 -12 2 -19 -2 -20 -13 -38 -13 -35 -1 1 7 -4 11 -11 9 -8 -1 -11 2 -8 7 3
5 -5 16 -18 24 -13 9 -23 24 -22 33 0 10 -7 18 -19 19 -11 1 -28 6 -37 10 -12
5 -18 3 -18 -6 0 -7 -3 -9 -6 -6 -4 4 -1 13 6 22 7 9 8 15 2 15 -6 0 -12 6
-15 13 -2 6 -3 4 -1 -6 1 -9 -2 -15 -7 -11 -5 3 -9 0 -9 -6 0 -6 -4 -8 -10 -5
-5 3 -10 14 -10 23 0 15 2 15 10 2 6 -9 10 -10 10 -3 0 17 -14 23 -30 13 -11
-7 -20 -3 -32 13 l-17 22 6 -25 5 -25 -16 23 c-10 12 -23 22 -29 22 -8 0 -8
-3 1 -9 11 -6 10 -10 -4 -15 -9 -3 -19 -4 -22 -1 -3 3 0 5 7 5 9 0 9 5 1 20
-11 21 -30 27 -30 9 0 -5 5 -7 10 -4 6 3 10 2 10 -3 0 -5 -18 -9 -39 -8 -22 0
-37 4 -35 8 2 4 13 5 23 3 10 -2 18 3 18 11 0 10 -4 11 -14 3 -9 -8 -13 -8
-13 0 0 6 -5 11 -11 11 -5 0 -7 -4 -4 -10 3 -5 -1 -10 -10 -10 -9 0 -13 5 -10
11 4 6 -3 5 -14 -3 -15 -9 -24 -10 -29 -2 -10 15 -61 11 -72 -6 -9 -13 -10
-13 -11 0 -1 8 -1 18 0 22 0 4 -6 5 -14 2 -8 -4 -13 -10 -10 -14 3 -5 1 -11
-5 -15 -9 -6 -15 8 -11 29 1 5 -4 4 -12 -2 -8 -7 -18 -8 -23 -4 -4 4 -2 -1 5
-11 12 -15 12 -17 -4 -11 -14 6 -16 4 -10 -6 5 -8 4 -11 -3 -6 -6 4 -8 14 -5
24 3 9 3 14 -2 10 -4 -4 -15 -2 -23 5 -13 10 -14 9 -2 -13z m185 -10 c3 -6 -1
-7 -9 -4 -18 7 -21 14 -7 14 6 0 13 -4 16 -10z m-595 -205 c-6 -8 -8 -19 -4
-26 4 -7 2 -10 -7 -7 -19 6 -18 31 1 40 23 10 24 9 10 -7z m1129 -56 c20 -27
21 -29 2 -18 -11 7 -22 21 -24 31 -7 24 -4 23 22 -13z m2 -36 c13 -16 12 -17
-3 -4 -10 7 -18 15 -18 17 0 8 8 3 21 -13z m-1104 -75 c2 -17 0 -19 -7 -8 -5
8 -6 18 -4 22 8 12 10 10 11 -14z m243 -19 c0 -4 -7 -10 -16 -13 -8 -3 -12 -2
-9 4 9 14 -8 12 -25 -2 -12 -11 -12 -10 -1 4 12 16 51 21 51 7z m24 -5 c3 -8
2 -12 -4 -9 -6 3 -10 10 -10 16 0 14 7 11 14 -7z m-264 -14 c0 -5 -2 -10 -4
-10 -3 0 -8 5 -11 10 -3 6 -1 10 4 10 6 0 11 -4 11 -10z m403 -243 c3 -7 -3
-13 -14 -13 -13 0 -15 3 -7 13 6 7 12 13 13 13 2 0 5 -6 8 -13z m100 -14 c-4
-10 -9 -11 -19 -2 -18 15 -18 15 5 15 11 0 17 -5 14 -13z m-323 -13 c0 -5 -5
-10 -11 -10 -5 0 -7 5 -4 10 3 6 8 10 11 10 2 0 4 -4 4 -10z m30 -10 c6 -11 8
-20 6 -20 -3 0 -10 9 -16 20 -6 11 -8 20 -6 20 3 0 10 -9 16 -20z m-373 -265
c0 -8 -4 -12 -9 -9 -4 3 -8 0 -8 -7 0 -7 -3 -9 -6 -6 -4 4 -1 13 6 22 15 19
17 19 17 0z m673 0 c8 0 21 4 29 9 10 6 12 5 7 -2 -10 -16 7 -15 23 1 11 10
13 10 7 0 -9 -16 6 -17 21 -2 8 8 15 4 27 -12 12 -18 16 -19 16 -7 0 9 8 19
18 23 14 5 15 4 5 -6 -19 -19 -16 -28 6 -22 13 3 18 11 14 21 -4 14 -3 15 5 2
7 -9 7 -19 2 -25 -6 -8 -4 -19 6 -31 14 -18 15 -18 4 4 -8 17 -8 22 2 22 14
-1 57 -30 44 -30 -5 0 -3 -7 4 -15 7 -8 10 -16 6 -16 -3 -1 -10 -2 -15 -3 -5
0 -13 -4 -17 -8 -7 -7 10 -12 29 -9 5 1 6 -3 2 -9 -4 -6 -16 -8 -28 -5 -17 5
-19 4 -7 -4 13 -9 12 -12 -5 -26 -17 -13 -17 -14 -2 -9 10 4 17 3 16 -2 -4
-21 2 -33 14 -30 6 1 8 1 4 -2 -4 -2 -2 -11 5 -20 11 -15 11 -15 -3 -5 -9 7
-19 10 -23 6 -4 -4 4 -13 16 -20 28 -15 6 -17 -25 -2 -21 9 -21 9 -3 -5 19
-15 13 -41 -7 -29 -9 5 -9 3 -1 -8 14 -19 12 -55 -3 -52 -7 2 -13 -2 -13 -7 0
-6 5 -10 10 -10 6 0 13 0 18 0 4 0 7 3 7 8 0 4 4 13 8 20 5 7 3 12 -5 13 -10
0 -10 2 1 6 10 4 10 7 2 13 -9 5 -8 10 3 19 11 9 16 9 22 0 4 -8 3 -9 -4 -5
-13 8 -12 -20 2 -42 5 -8 3 -12 -6 -10 -8 2 -13 -6 -12 -19 1 -13 -3 -20 -7
-17 -5 3 -9 0 -9 -6 0 -6 -4 -9 -9 -6 -5 4 -11 3 -14 -1 -2 -5 -2 -2 -1 5 2 6
-1 12 -6 12 -9 0 -14 -13 -12 -31 1 -3 -5 -6 -13 -6 -10 0 -11 5 -4 18 12 24
11 39 -2 16 -6 -9 -15 -14 -21 -11 -6 4 -8 2 -4 -4 3 -6 1 -14 -5 -18 -7 -4
-9 -3 -5 4 3 6 2 13 -4 17 -6 4 -7 12 -3 18 4 7 0 6 -10 -2 -9 -7 -17 -19 -17
-25 0 -6 5 -4 10 4 6 9 10 10 10 3 0 -19 -20 -26 -26 -9 -5 14 -8 14 -21 0
-13 -13 -20 -12 -60 11 -31 17 -41 20 -32 8 12 -15 12 -16 -6 -9 -29 11 -59
16 -51 9 7 -8 31 -14 63 -16 12 -1 24 -5 27 -8 3 -3 -9 -4 -26 -2 -18 2 -43 4
-55 5 -13 1 -23 5 -23 9 0 5 -44 19 -74 23 -5 1 -11 8 -13 16 -4 13 -3 13 7 0
10 -13 11 -13 7 0 -2 8 -9 15 -14 15 -6 0 -14 3 -18 7 -4 4 -13 4 -20 2 -20
-8 -26 24 -7 35 10 6 12 11 5 11 -7 0 -13 5 -13 10 0 7 7 7 23 0 20 -10 20
-10 5 3 -10 8 -14 18 -10 23 4 5 -3 0 -16 -11 -20 -16 -22 -17 -16 -2 5 13 2
16 -12 11 -12 -4 -15 -3 -7 3 6 4 10 22 9 39 -2 26 1 30 19 28 18 -1 21 3 20
25 -3 38 12 62 33 54 16 -6 16 -6 0 11 -22 22 -24 33 -3 16 13 -11 18 -11 28
0 8 8 8 11 1 7 -7 -4 -18 1 -25 11 -13 15 -12 16 4 3 14 -11 17 -11 17 0 0 8
6 6 16 -7 14 -17 15 -17 10 -1 -3 11 -2 16 4 12 6 -3 13 1 16 9 3 9 11 16 17
16 5 0 2 -9 -7 -19 -12 -13 -14 -21 -6 -26 6 -4 9 -1 8 7 -2 7 5 12 15 12 9
-1 17 4 17 11 0 7 12 13 27 13 15 0 29 5 31 12 3 7 7 8 11 4 3 -5 13 -9 21 -9z
m-244 -130 c-1 -9 -6 -15 -12 -14 -5 0 -8 5 -6 10 1 5 -4 9 -10 9 -9 0 -8 3 2
9 18 12 29 6 26 -14z m486 -12 c-9 -3 -10 -9 -3 -17 8 -9 7 -13 -3 -13 -11 0
-14 12 -7 35 1 1 7 2 14 1 9 0 9 -2 -1 -6z m-502 -128 c0 -2 -6 -5 -13 -8 -8
-3 -14 1 -14 8 0 7 6 11 14 8 7 -3 13 -6 13 -8z m-440 -65 c-8 -5 -10 -10 -4
-10 6 0 11 -7 11 -16 0 -15 -2 -14 -13 1 -14 19 -10 35 9 35 7 0 6 -4 -3 -10z
m490 0 c0 -5 -2 -10 -4 -10 -3 0 -8 5 -11 10 -3 6 -1 10 4 10 6 0 11 -4 11
-10z m-423 -156 c-3 -3 -12 -4 -19 -1 -8 3 -5 6 6 6 11 1 17 -2 13 -5z m1304
-109 c5 4 6 -1 2 -10 -5 -13 -7 -14 -14 -3 -5 7 -8 18 -8 23 0 6 3 4 6 -3 2
-6 9 -10 14 -7z m-120 -88 c-10 -9 -11 -8 -5 6 3 10 9 15 12 12 3 -3 0 -11 -7
-18z m-919 -19 c-8 -8 -9 -4 -5 13 4 13 8 18 11 10 2 -7 -1 -18 -6 -23z m878
17 c0 -12 -19 -12 -23 0 -4 9 -1 12 9 8 7 -3 14 -7 14 -8z m-110 -10 c5 3 11
1 14 -4 4 -5 -2 -8 -11 -6 -10 1 -24 -3 -32 -9 -12 -9 -12 -8 0 12 8 12 15 18
17 12 2 -6 8 -8 12 -5z m-166 -21 c3 -8 2 -12 -4 -9 -6 3 -10 10 -10 16 0 14
7 11 14 -7z m96 12 c0 -3 -4 -8 -10 -11 -5 -3 -10 -1 -10 4 0 6 5 11 10 11 6
0 10 -2 10 -4z m-242 -31 c-3 -3 -9 2 -12 12 -6 14 -5 15 5 6 7 -7 10 -15 7
-18z m46 4 c-8 -13 -21 -11 -27 5 -4 10 0 12 14 9 10 -3 16 -9 13 -14z"/>
<path d="M1046 851 c-3 -5 1 -11 9 -14 9 -4 12 -1 8 9 -6 16 -10 17 -17 5z"/>
<path d="M950 841 c0 -6 4 -12 8 -15 5 -3 9 1 9 9 0 8 -4 15 -9 15 -4 0 -8 -4
-8 -9z"/>
<path d="M986 837 c3 -10 9 -15 12 -12 3 3 0 11 -7 18 -10 9 -11 8 -5 -6z"/>
<path d="M1013 835 c0 -8 4 -12 9 -9 5 3 6 10 3 15 -9 13 -12 11 -12 -6z"/>
<path d="M880 835 c0 -1 8 -9 17 -16 14 -12 15 -12 9 0 -7 10 -3 12 15 6 13
-4 21 -4 17 0 -7 7 -58 16 -58 10z"/>
<path d="M1167 805 c3 -9 -3 -26 -13 -38 l-19 -22 22 18 c12 11 27 16 33 12 7
-4 4 4 -5 19 -19 29 -27 34 -18 11z"/>
<path d="M708 673 c7 -3 16 -2 19 1 4 3 -2 6 -13 5 -11 0 -14 -3 -6 -6z"/>
<path d="M1155 660 c-3 -5 -1 -10 4 -10 6 0 11 5 11 10 0 6 -2 10 -4 10 -3 0
-8 -4 -11 -10z"/>
<path d="M698 642 c4 -10 7 -12 10 -4 2 7 9 9 15 5 7 -3 8 -2 4 2 -14 16 -36
14 -29 -3z"/>
<path d="M715 560 c3 -5 8 -10 11 -10 2 0 4 5 4 10 0 6 -5 10 -11 10 -5 0 -7
-4 -4 -10z"/>
<path d="M987 485 c3 -8 9 -12 14 -9 12 7 11 11 -5 17 -10 4 -13 1 -9 -8z"/>
<path d="M1385 1730 c-3 -6 1 -7 9 -4 18 7 21 14 7 14 -6 0 -13 -4 -16 -10z"/>
<path d="M1425 1684 c6 -5 25 -22 43 -38 17 -17 32 -27 32 -24 0 11 -36 45
-60 58 -14 7 -20 8 -15 4z"/>
<path d="M1586 1494 c-7 -19 1 -34 17 -33 9 0 9 2 0 6 -7 2 -13 9 -13 14 0 6
4 7 10 4 6 -3 7 1 4 9 -8 20 -10 20 -18 0z"/>
<path d="M803 1415 c0 -8 4 -12 9 -9 5 3 6 10 3 15 -9 13 -12 11 -12 -6z"/>
<path d="M839 1419 c-9 -5 -2 -7 23 -6 24 2 39 -1 42 -10 2 -7 3 -6 2 3 -1 19
-44 27 -67 13z"/>
<path d="M507 1393 c-4 -3 -7 -11 -7 -16 0 -6 3 -7 7 -4 3 4 13 1 21 -6 13
-10 14 -9 3 11 -13 24 -14 25 -24 15z"/>
<path d="M1059 1373 c-13 -16 -12 -17 4 -4 9 7 17 15 17 17 0 8 -8 3 -21 -13z"/>
<path d="M470 1369 c0 -5 -5 -7 -12 -3 -7 4 -8 3 -4 -4 4 -6 13 -9 21 -5 17 6
20 23 5 23 -5 0 -10 -5 -10 -11z"/>
<path d="M714 1154 c-18 -14 -18 -15 4 -4 12 6 22 13 22 15 0 8 -5 6 -26 -11z"/>
<path d="M745 1150 c-3 -6 1 -7 9 -4 18 7 21 14 7 14 -6 0 -13 -4 -16 -10z"/>
<path d="M1637 1137 c-3 -8 1 -14 8 -14 7 0 11 6 8 14 -3 7 -6 13 -8 13 -2 0
-5 -6 -8 -13z"/>
<path d="M505 1120 c-3 -5 -1 -10 4 -10 6 0 11 5 11 10 0 6 -2 10 -4 10 -3 0
-8 -4 -11 -10z"/>
<path d="M1636 1101 c-3 -5 1 -11 9 -14 9 -4 12 -1 8 9 -6 16 -10 17 -17 5z"/>
<path d="M370 1019 c0 -5 -5 -7 -12 -3 -7 4 -8 3 -4 -4 4 -6 13 -9 21 -6 8 4
12 10 9 15 -7 12 -14 11 -14 -2z"/>
<path d="M1633 1015 c0 -8 4 -12 9 -9 4 3 8 9 8 15 0 5 -4 9 -8 9 -5 0 -9 -7
-9 -15z"/>
<path d="M1636 861 c-3 -5 1 -11 9 -14 9 -4 12 -1 8 9 -6 16 -10 17 -17 5z"/>
<path d="M230 750 c0 -5 5 -10 11 -10 5 0 7 5 4 10 -3 6 -8 10 -11 10 -2 0 -4
-4 -4 -10z"/>
<path d="M227 719 c7 -7 15 -10 18 -7 3 3 -2 9 -12 12 -14 6 -15 5 -6 -5z"/>
<path d="M228 673 c6 -2 9 -10 6 -15 -4 -7 -2 -8 5 -4 13 9 5 26 -12 25 -9 0
-8 -2 1 -6z"/>
<path d="M1640 665 c0 -5 5 -17 10 -25 5 -8 10 -10 10 -5 0 6 -5 17 -10 25 -5
8 -10 11 -10 5z"/>
<path d="M1650 551 c0 -6 4 -13 10 -16 6 -3 7 1 4 9 -7 18 -14 21 -14 7z"/>
<path d="M1630 486 c0 -2 7 -7 16 -10 8 -3 12 -2 9 4 -6 10 -25 14 -25 6z"/>
<path d="M1635 436 c0 -19 5 -33 12 -33 8 0 9 6 4 16 -5 9 -6 21 -4 28 2 6 0
13 -4 16 -4 3 -8 -9 -8 -27z"/>
<path d="M1636 381 c-3 -5 1 -11 9 -14 9 -4 12 -1 8 9 -6 16 -10 17 -17 5z"/>
<path d="M300 329 c-11 -8 -9 -9 10 -3 21 6 23 5 13 -8 -10 -12 -10 -15 1 -15
15 0 15 29 0 34 -5 1 -16 -2 -24 -8z"/>
<path d="M1640 320 c0 -5 5 -10 10 -10 6 0 10 5 10 10 0 6 -4 10 -10 10 -5 0
-10 -4 -10 -10z"/>
<path d="M413 229 c-2 -23 3 -25 10 -4 4 8 3 16 -1 19 -4 3 -9 -4 -9 -15z"/>
<path d="M1630 195 c0 -8 2 -15 4 -15 2 0 6 7 10 15 3 8 1 15 -4 15 -6 0 -10
-7 -10 -15z"/>
<path d="M485 191 c-3 -5 -2 -12 3 -15 5 -3 9 1 9 9 0 17 -3 19 -12 6z"/>
<path d="M545 169 c-10 -15 3 -25 16 -12 7 7 7 13 1 17 -6 3 -14 1 -17 -5z"/>
<path d="M983 113 c-20 -8 -15 -19 10 -20 12 0 16 1 9 4 -6 3 -10 9 -6 14 6
10 5 10 -13 2z"/>
</g>
</svg>
