<?xml version="1.0" standalone="no"?>
<!DOCTYPE svg PUBLIC "-//W3C//DTD SVG 20010904//EN"
 "http://www.w3.org/TR/2001/REC-SVG-20010904/DTD/svg10.dtd">
<svg version="1.0" xmlns="http://www.w3.org/2000/svg"
 width="930.000000pt" height="930.000000pt" viewBox="0 0 930.000000 930.000000"
 preserveAspectRatio="xMidYMid meet">
<metadata>
Created by potrace 1.11, written by Peter Selinger 2001-2013
</metadata>
<g transform="translate(0.000000,930.000000) scale(0.100000,-0.100000)"
fill="#000000" stroke="none">
<path d="M3108 9142 l-28 -3 0 -4485 0 -4484 1685 0 1685 0 0 1400 0 1400
1400 0 1400 0 0 1685 0 1685 -1400 0 -1400 0 0 1400 0 1400 -27 0 c-137 3
-3295 4 -3315 2z"/>
<path d="M50 4655 l0 -1685 1390 0 1390 0 0 1685 0 1685 -1390 0 -1390 0 0
-1685z"/>
</g>
</svg>
