<svg id="Warstwa_1" xmlns="http://www.w3.org/2000/svg" version="1.1" viewBox="0 0 80 80">
  <path id="_x32_" d="M10.7539673,56.0292244c-.2605228-2.7282639-.0687199-5.4336357.5754128-8.1218262.2204437-.9189568.7901421-2.0726814,1.188076-2.7969666,1.1880817-2.1671562,2.7941198-3.8247452,4.8238468-4.9784508.1173897-.0658569.2777042-.1259613.4752388-.1803589.1116562-.0286179.1488552-.168911.0658398-.2462158-.9361496-.9017754-1.520153-2.0669479-1.7549095-3.4983444-.3120384-1.9123764.0085964-3.7932587.9619045-5.6454945.2089958-.4036674.8474026-1.5516415,1.9209576-3.4411163.1918087-.3349419.4008045-.9132233.624094-1.7291374.5468121-2.0097046.8101864-3.3495045,1.1680374-5.241827.4151096-2.181469,1.0678291-4.2054863,1.9638939-6.0749168,2.3618279-4.926919,6.2008801-8.0674286,11.5228558-9.4215345,1.3140373-.3349643,3.1204834-.4580464,5.4136009-.3750486,7.7152939.2805676,13.8159676,5.9231987,15.7111702,13.2119274.2261581.8674469.5124359,2.0784149.8645592,3.6386528.1460075.6555824-.2776871,1.299715-.9361343,1.425684l-.0372162.0085793c-.6355553.1202469-1.2367401-.3292141-1.302597-.9704838-.1803589-1.7291374-.76437-3.7044907-1.7577629-5.9231815-1.9009171-4.2570133-5.5510139-7.4776859-10.1573029-8.4710789-4.7093277-1.0105858-10.2488976-.0801687-13.7987843,3.369545-.2376194.2318697-.7300358.7729483-1.4772282,1.6260662-1.5344658,1.749177-2.6166229,4.503212-3.1548328,6.467123-.2891293,1.0563793-.7958565,3.2321148-1.5201588,6.5272293-.1001911.449461-.2147102.8559818-.3492527,1.2252903-.1345654.3750134-.3492756,1.0964527-.5983391,1.5945778-.420826.8388233-1.210968,2.3675613-2.3704071,4.5891132-.0486641.0944748-.0830326.1975365-.0973454.3034592-.1087875.8101807-.4122467,1.5974579-.3463898,2.4448433.0858841,1.0850143.5439262,2.1156273,1.3770142,3.086132.1717625.2003822.4466038.2805519.6985302.2032623l1.8121529-.5611191c.0572605-.0171776.1173897-.0286179.177496-.0343513l2.0698299-.1946716c.0486641-.0057259.0973282-.0171776.140276-.0372314.4637794-.2147102.8416748-.3377953,1.1365376-.3750153.1316967-.0171776.2576599-.0658379.3635826-.1460075.6641731-.500988,1.1193562-1.1966743,1.3684349-2.0869865.9504395-3.4153442,1.4800758-5.3678074,1.5917263-5.8573418.022892-.0887661.0028515-.1832237-.0515442-.2605228-.5582371-.7786808-1.1909275-1.4314117-1.4743423-2.0955734-1.2195644-2.8399315-.9189739-5.5882339,1.7491837-7.4805546.0944748-.0687027.2032623-.117384.3177662-.1460075,1.1823483-.2891464,2.2616367-.3378277,3.2435818-.1460018,1.1479988.2233067,2.3303413.9418774,3.5155525,1.188076.8616982.1803589,1.7892685.2003822,2.7855225.0601063.7242851-.1001911,1.6804733-.24333,2.3188744-.3807411,1.7320251-.3693161,3.4897804-1.1251068,5.2704697-2.2645016.5639648-.3635826.9933853-.7128429,1.2911377-1.0477829.0486641-.0572605.1087875-.1030769.1774902-.1345654,1.8923225-.904645,1.8493729,2.0555058,1.8293304,3.2092304-.0429306,2.3675442-.2719536,4.70648-.6927986,7.0196457-.3406754,1.8865891-.8302078,3.5642166-1.4686279,5.0271168-.4408722,1.0105667-1.1937904,2.0039711-1.7806664,2.7540283-1.2768288,1.6403961-2.9573021,2.7683487-4.961277,3.2264061-.9246902.2118492-1.1537056.3177719-2.0669479.4609108-.7729645.1231003-1.0993347.609787-.9819679,1.4571648.2290421,1.6403961,1.1479988,2.8771515,2.7569008,3.7130775.266243.1402931.8416748.3807755,1.7262917.7271652.0715714.0286179.137413.0687027.1946716.117382.538208.4551773.8044472,1.7033653.0973434,2.1413841-.0773048.0486641-.1631851.0801506-.2519302.0887299-.6584625.0687218-1.3197708-.0801353-1.9867973-.446579-.8559799-.4695053-1.3856163-.7729645-1.5888863-.9075241-1.8694115-1.248188-2.9830513-2.9515533-3.3466187-5.1101303-.0429497-.2547798.0515289-.8531189.2776871-1.7921295.2261543-.9332809.7672348-1.5831299,1.6174965-1.9467125.0658379-.0286407.137413-.0515327.2089844-.0658379,2.0411949-.4151154,3.255024-.7271538,3.6414986-.9390182,2.104187-1.1508369,3.6272087-2.9114799,4.5633354-5.2790413.4408875-1.1079121.8645782-2.4448433,1.0535164-3.6128807.3235054-2.0182838.5582542-4.0394382.7014008-6.0691833.0085983-.1345482-.1316795-.2232895-.2490692-.1574516-1.7090912.9762287-3.4840469,1.6976662-5.3305702,2.1642933-.4523315.1144981-.941864.1087875-1.3541107.1975346-1.2625122.2719707-2.7025032.3263626-4.3200073.1660309-1.1680183-.1173553-2.2673454-.4408531-3.3008232-.9733524-.1030731-.05439-.2175751-.0858784-.3320961-.0944576-1.0048523-.0658569-2.7712116-.5697155-3.4038849.9848137-.7071266,1.7319832.074419,3.3409081,1.4514389,4.5948238.6384182.5811405.7357445,1.4972515.3893547,2.2788124-.154604.3521233-.0601234.6842003-.1832237,1.0134144-.1631832.4265766-.3149242.9733639-.4609108,1.6346741-.4924145,2.2473297-.7300358,3.7560425-1.4371452,5.2360992-.0973454.2032814-.6355534.7472038-1.6117706,1.6318283-.0400848.0371971-.0858784.0687027-.1345425.0944595l-.8073177.4065361c-.0944805.0486641-.1288319.1660309-.0744362.2576408.4122467.6870689.9705009,1.508709,1.6747417,2.4648895,1.0735607,1.4571838,2.3761406,2.5393372,3.9077587,3.2464447.8101883.3750305,2.0411949.7500572,3.6873169,1.1250877.7214203.1631775,1.1909294.4609261,1.019165,1.2166939-.2605286,1.1479988-1.4714966,1.1336861-2.4505768.9676361-3.4468498-.5868721-6.5787735-2.8399124-8.4596367-5.6798439-.8846169-1.3369293-1.4256954-2.152832-1.6289463-2.4505577-.1517353-.2261696-.4122467-.3549881-.6842175-.3378296-.9132404.0601234-1.8579636.2662621-2.834198.6212463-3.4554291,1.2596321-5.802928,3.5813904-7.0368042,6.9680939-.2118645.5783005-.3836279,1.2939987-.5153236,2.1471176-.1746264,1.1250877-.2719536,1.7262917-.294857,1.8035736-.0257721.1231003-.037221.2490616-.0314875.3750305l.5496578,11.8291817c.0057268.1259613.0286188.2490616.0658398.3664551.0085964.0257568.0887423.4952621.2376137,1.402771.5754309,3.509819,2.3818731,6.6789627,6.212327,7.2086029,1.4285469.1975174,3.1118851.1832047,5.0528717-.0372238.7643871-.0858994,1.2338753-.1317139,1.4113712-.1374207,1.1050606-.0286255,1.929554-.2433319,3.0460453-.2776871.4838123-.0143127.9705009-.0830307,1.4600468-.206131.1087704-.0257568.2204266-.0429306.332077-.0486603.7071095-.0400696,1.2453251-.0601273,1.6146412-.0601273.7786751,0,1.7033844-.2891388,2.6223335-.2719574.1889572.002861.5382156-.0229111,1.0506516-.0801697,2.1156311-.2433319,3.8476295-.343544,6.0147934-.7586517,1.0306244-.1975174,1.9982567-.4007874,2.9000397-.6155014,3.1347923-.741478,5.9059982-1.898056,8.3136444-3.4640274,1.3770142-.8960495,2.550766-2.0755463,3.5269775-3.5441589.0859032-.1288261.1402969-.2776985.1660538-.4322853.0486641-.306324.114521-.5897408.2003975-.8445396.2862816-.8702927-.1460075-1.4915352-1.1021805-1.3913269-.3864899.0400658-.8674393.1946564-1.4400063.4666443-.7930069.3750267-2.3790054,1.110775-4.7637405,2.204361-.2605057.1202469-.6927986.2490616-1.2911301.3864899-.458046.1030579-.8760262-.1002121-1.2539024-.6097984-.0601234-.0801506-.09161-.1774788-.0887489-.2776871.0171814-.8073006.4236946-1.2682266,1.2195511-1.3798676.0830307-.0085983.1603165-.0315056.2347488-.0629883,1.8722992-.7930107,3.7961044-1.6804962,5.7714577-2.6566925,1.3426628-.6641769,3.3609543-.6555977,4.3629379.6298027.9304161,1.1995239,1.1565781,2.473484.6727562,3.8247452-.7013931,1.9638748-2.2559052,3.6157227-3.9163399,4.8181305-2.6881905,1.9524307-5.6741142,3.5584717-8.8575706,4.3858261-1.2768059.3320999-2.4391289.5897446-3.4897804.7701035-1.7062302.2977295-2.6910439.5267639-4.0852318.6469955-2.7826729.2433319-5.9603958.5467911-9.5332088.9161072-.3406792.0343552-.7042465.0858612-1.0878735.1574478-.4981251.0916138-1.1451283.0400848-1.6375256.1116333-1.1079063.1632004-2.7597618.3120728-4.9584064.4466248-1.2796879.080162-2.5822716-.0629959-3.9106236-.4294281-1.262495-.346405-2.3990498-.9676285-3.4067478-1.8637009-1.1479912-1.0191803-1.9867973-2.0784149-2.5107002-3.1777267-.1631842-.346405-.535346-1.4171143-1.1165094-3.2120972-.0429306-.1259689-.0629702-.2605133-.0658398-.39505-.0085793-.4179993-.0772991-.9046631-.2032623-1.4629135-.0400667-.1689148-.0629759-.343544-.0687084-.5181732-.0543909-1.8350792-.0973272-2.8771362-.128809-3.1261978-.2319098-1.8322105-.1746502-3.5556374-.3578558-5.5109444l.0000095.0000153ZM59.0325813,30.1149712c2.7225456.1345482,5.1072807,1.1880646,7.1541862,3.1605492,1.9782181,1.9066505,2.8857346,4.2942352,2.7225647,7.1627846-.0200653.3349457-.0887833,1.0506516-.2061462,2.1499863-.0114288.1087875-.0429382.2147102-.0915909.3120384-.2462006.4952774-.20327.9046555.1316986,1.2281609.1001892.0973282.1746063.2204437.2118225.3549881.4838333,1.7148247.5325012,3.415329.1460114,5.1015511-.4093628,1.7778015-.8216324,3.0918388-1.2367249,3.9449577-.6126709,1.2510529-1.2825546,2.4333992-2.0125732,3.547039-.5525208.8416672-1.288269,1.7262917-2.2100868,2.6509743-.0687103.0687027-.1574669.1116562-.2547951.1231003-.5296173.0629768-.9046631,0-1.1193733-.1860924-.4294205-.369297-.5439262-.8158951-.3406639-1.3369293.0257797-.0687027.0658379-.1316948.114502-.1860924,2.1700287-2.4019127,3.6386337-4.9927406,4.403038-7.7725487.0973282-.3521385.2719574-1.4457245.521019-3.2779312.0114441-.0859032.0057297-.1717644-.0200424-.2519302-.0429459-.1288147-.0457916-.2347336-.0143127-.3149033.0343552-.0859032.0028534-.1832237-.077301-.2290421-.077301-.0486641-.1774826-.0314865-.2376175.03722-.2089767.246212-.4007874.4065323-.5696793.4809685-.217598.0915947-.357872.1574326-.4179993.1946716-.7901382.4923935-1.5602188.9189682-2.3131485,1.2825356-.0915947.0429535-.1545868.1288338-.1660461.229023-.1173668.8817368-.4379997,1.7262917-.9647675,2.5307274-.6384048.9762268-1.2252808,1.7692375-1.7606239,2.3732872-.4637985.5238876-1.0993347.9361496-1.7463303.4322929-.4236946-.3292313-.5954742-.7271538-.5124435-1.1880836.0171776-.0887489.0572586-.1688919.1202354-.2347336,1.0592499-1.09935,1.9066353-1.9324074,2.1872025-3.4869347.0343513-.1860695-.1631851-.3292313-.3292313-.2404671-.3750305.1975174-.6154976.4150925-.8502541.8015862-.7013931,1.1594391-1.7348633,1.7949944-3.1004372,1.912365-1.2796745.1087875-3.0660896.1316948-5.3534851.0658379-.1517181-.0028687-.3034592.0143242-.4494629.05439-.4151001.1173897-.80159.1889381-1.1594391.2118645-.5954742.0400658-.9790802.1030617-1.1537056.1889381-.0343513.0171776-.6756401.1316948-1.9266891.3406754-2.2787971.3807487-4.4917717,1.107914-6.5472755,2.1528511-3.6157455,1.837925-6.4470596,3.8189926-8.5798664,7.1713638-.2519321.3979416-.5239029.7701035-.8187828,1.1222267-.1488552.1774902-.0257549.4494629.2090015.4551964,1.073555.0200386,4.1711273.114502,9.2955742.2891464,1.3169098.0457993,1.8093071-.320652,2.628067-1.3884811,1.9037857-2.4820595,4.5576248-4.0365677,7.4719772-5.1702538.5611-.2175751,1.1937904.0601234,1.4142342.6212311l.0143127.0400772c.2261543.5783005-.0286255,1.2310143-.5840111,1.5058479-1.6289482.80159-2.7053719,1.3340683-3.2292747,1.5974426-1.4972496.7557907-2.7397194,1.9496002-3.7245293,3.5814133-.5296135.8788681-1.4600372,1.3483734-2.7912521,1.4085007-1.3483772.062973-3.0002365.05439-4.9498177-.0286255-3.5785217-.1460037-7.1856918-.088768-11.0762539-.1374207-.6069183-.0085754-1.136549-.1545868-1.5859985-.4408722-.0916119-.0572586-.154604-.1546021-.166048-.2605286-.1374111-1.2367401-.2347565-2.0182838-.292017-2.3446541-.1231003-.730011-.1803589-1.3827324-.1688938-1.952446.0171757-.8760185-.2404842-1.7291374-.2519321-2.6108894-.0143299-1.0764084-.0400848-2.2730789-.0744362-3.5899696-.0171757-.649868.4551773-1.2081223,1.0964642-1.2997169l.0457993-.0057335c.5897427-.0858955,1.1222191.3578568,1.1451283.9533272.1259632,3.2951088.2576599,5.5452881.3922081,6.744812.1001911.9017754.1975346,1.6890526.2891464,2.3589592.0143127.114521.114521.1975365.2318878.191803l1.7549095-.0801468c.177496-.0085983.3349476-.114521.4093838-.2777023,1.468626-3.2321205,3.6787186-5.9174461,6.6331558-8.050251,3.7674866-2.7225494,7.9214363-4.3915787,12.4590073-5.0013428.3692932-.0515289.7615013.0658379.9533195.0171776.0830154-.0229187.1116409-.1259804.0515327-.1860886-1.0048523-1.0048523-1.6175041-1.9410019-1.8436584-2.8084259-.3091927-1.1794853-.2691078-2.4391327.1231003-3.7817802.1889381-.6470184.615509-1.4772224,1.2796707-2.490654,1.033493-1.5716858,1.417099-3.6100159,2.2387276-5.2217865,1.8093071-3.5585003,5.4908905-5.4450893,9.43013-5.2504311ZM51.4518356,36.9742851c-.7157059,2.0440559-1.3856163,3.5556183-2.0097046,4.5318489-.6956673,1.085022-1.0936012,1.9037819-1.1937904,2.4505768-.2834206,1.5373344.1631775,3.7445755,1.7348633,4.4688797,1.6862068.7815437,3.4496956.9847908,5.2962227.6154976.7586555-.151722,1.4543152-.4351387,2.0869865-.8474007.689949-.4465866,1.3026009-.8989334,1.8408127-1.3569756.4780846-.4093819,1.1107597-.6470032,1.898037-.712841.2576599-.0200386.5038567,0,.7357445.0601234.8903503.2347565,2.6108894-1.0764351,3.0803947-1.5859947.8674469-.9361496,1.362709-2.0841408,1.4915314-3.4497147.1173706-1.2395935.1231003-2.0669479.0229111-2.4820824-.6097794-2.4763298-1.952446-4.1968727-4.0337219-5.1616592-2.3646927-1.1021805-4.7666054-1.1623039-7.2085838-.1860771-1.9094963.76437-3.1548347,1.9839325-3.741703,3.6558189Z" style="fill: #010101;"/>
</svg>