<svg id="Warstwa_1" xmlns="http://www.w3.org/2000/svg" version="1.1" viewBox="0 0 80 80">
  <path id="_x33_" d="M62.8219757,61.3369102c-.1417847-.1145668-.2261505-.2864456-.2292404-.4673615-.0210571-1.5860863-.1326637-2.8495216-.3316498-3.7872963-.4160843-1.9630127-1.0734901-3.929039-1.9690437-5.9010811-1.2031326-2.6474991-3.0424614-5.0537605-5.5090828-6.5795555-.8683891-.5367279-1.4262657-.8744469-1.6735458-1.010128-.1236076-.0663452-.1477509-.2352066-.045208-.3347168.9679222-.9136505,1.7760201-1.8514252,2.430336-2.8133278.4915466-.7236938,1.1790543-2.1740837,2.068573-4.3511963.0362244-.0904541.1115303-.1628189.2081146-.1929665.7598801-.2442436,1.7096977-.5216713,2.3760834-1.0312691,2.5992775-1.9810791,3.187191-5.0235939,1.9116936-7.9635792-.7055473-1.6343288-2.4182587-2.3158016-3.9500923-2.8766575-.1236038-.0452366-.2141495-.1507721-.2412376-.2804489-.9950867-4.9361553-3.5853195-8.8018436-7.7675934-11.5970945-1.0312347-.6875353-2.9520607-1.7519283-4.1130066-1.0071402-.9226456.5910177-.2954254,1.7760515.4252129,2.0082245,3.7179031,1.2091875,6.4739914,4.4084892,8.0389481,7.8158531.2894669.6302166.7327919,2.0835915,1.3327713,4.3602123.0603676.2261524.2684097.4794502.6211853.7598743.0874557.0693665.1930237.1055546.3016129.1085701,1.7699814.0452175,3.407383,1.1488514,3.5098572,3.0515518.0844345,1.6222687-.141716,3.1269398-1.7066727,3.8596668-.2321892.108551-.8111191.1869545-1.7428932.2351875-.0874557.0030212-.1718979.024128-.2503014.0572968-.6181679.2774277-.9799957.6633835-1.0885849,1.154892-1.0040703,4.6074982-4.1852989,8.3043213-8.5575829,10.0743599-2.9189301,1.1850395-6.404644,1.6674881-9.5617256.998085-1.3901138-.295517-2.3670921-.542778-2.9279861-.7417831-.9860268-.3467751-2.1951256-.9860344-3.6274223-1.914753-.922718-.600071-1.7217674-1.534832-2.4544773-2.2132874-1.935915-1.7971725-3.2535934-4.2154846-4.140173-6.6790543-.1537094-.4342117-.4552479-.6844749-.898571-.7478027-.6242027-.0934753-1.1910591-.2412262-1.7036572-.4432487-.0995274-.0392036-.1929493-.0934753-.2743683-.1598282-1.519762-1.2453461-1.9449749-2.7258854-1.2725506-4.4446468.5217247-1.338829,1.7881641-1.5649796,3.1450844-2.0112457.2110596-.0693665.3739014-.2442493.4311733-.4613647.2804127-1.1156864.5699463-2.1469383.8624306-3.0907688.4854336-1.5619392,1.2271996-2.9791698,2.2253036-4.2546654,2.3519344-2.994257,5.4699192-5.2407103,9.1757526-6.1935778.5457993-.1417179.9799957-.3739023,1.3086967-.6995516.0542564-.0543089.1055641-.1115685.1507645-.1748953.1869164-.25632.3015366-.883502.3406982-1.8816061.018116-.4130878.2865257-1.0794926.8081017-1.9961534.0543289-.0995154.135746-.1779361.2352066-.2321906,2.2856674-1.2272601,3.4706917,1.3418198,3.2295189,3.1781893-.2291679,1.7459145-1.0674515,3.1480455-2.5118217,4.209465-.045208.0331659-.0904808.0602932-.141716.0844221-.9528313.4673977-1.3810616,1.0342855-.8835564,2.0504627.0513115.108551.1478233.1869354.2653923.2170982.6362724.1628246,1.1458549.1387138,1.5227776-.075386.8231888-.4673729,1.6132507-1.1518679,2.3670921-2.0564823,1.5408096-1.8484402,2.0082054-3.8325224,1.6704483-6.2478504-.1838951-1.3237534-.6965675-2.3368959-1.5439034-3.0364656-1.0221062-.8442974-2.1650162-1.1488519-3.4344711-.9106469-2.7620544.5126157-3.6696777,2.3489847-4.0405655,4.9723258-.0211258.1447706-.1145477.2653685-.2503014.3226633-.6935501.2864456-1.3237152.5156374-1.8876266.693531-3.3892727,1.0674515-6.504097,3.7601767-8.5636139,6.5192461-1.4383373,1.9268055-2.2705822,4.3511753-2.8736591,6.6940861-.024147.0965118-.0904732.1809521-.1779289.2322083-.5457268.313591-.910574.5126152-1.0945492.6000538-2.0745373.9799938-3.2535934,3.3169079-2.976202,5.6809616.1959724,1.6674938.9890499,3.0334606,2.3821869,4.1009007.6875114.5246696,1.8785706.913662,2.4846573,1.2543983.0904789.0512581.1597538.1356773.1959724.2351875.9106464,2.6173401,2.4273872,4.8788681,4.5472031,6.7815666.1628361.1447449.1236019.4101028-.0723705.5005569-2.0444298.9619026-3.7510986,2.3640404-5.1231098,4.209446-1.4051361,1.8906403-2.4756031,4.0134544-3.2114086,6.362442-.6995888,2.228363-1.2211666,4.3813019-1.1970921,6.5131874,0,.0844421-.0211315.1658401-.0633144.2382278-.4553204.8081169-1.227272,1.3750038-1.6252489,2.1439209-.5699472,1.1036148-.8955545,1.9509354-.9740295,2.541954-.4975109,3.7661896.6784563,6.8961487,3.5340738,9.3958817.6633701.5819626,1.5046692,1.0674515,2.5268478,1.4624634,2.8435459,1.0945816,5.6900349.5156174,7.7434464-1.6765518.971014-1.0342712,1.6614685-.8925552,3.0878067-.8171692.1054935.0060349.2110596.0241318.3105202.0572891.8594093.2683716,1.9147911.5699081,3.160099.9106522,1.1850929.3196259,2.2585831.4945068,3.2204704.5276871,2.8313942.0934753,5.5090828-.1899719,8.0329094-.8473129.8865776-.2291718,1.7368584-.6633911,2.517868-.949852.4191017-.1537857.7146759-.1899719.8834839-.1025314.0934944.0512772.186985.1025314.2804794.1537857.0059662.0030136.2592812.3136063.762825.9317551,1.8273315,2.24646,5.1291504,2.774147,7.7012634,2.0233231,4.9572525-1.4473953,8.1806641-7.3786163,6.4559555-12.2725601-.3528519-.998085-1.0554543-1.914772-2.1077423-2.7560616ZM19.7715397,60.188076c.1416378-.3648834.0361462-1.4564285.1537876-2.1379089.3708858-2.0926628,1.064436-4.1943703,2.0805759-6.3051262.4432507-.9257202.9106464-1.7006721,1.4021187-2.3248749.8412991-1.0764694,1.4292831-1.7669868,1.7610016-2.0715408.9679184-.8895416,2.1077404-1.65242,3.4254189-2.2947121.2412453-.1175804.5277634-.1115494.76297.0181084,1.1669121.6362419,1.9780254,1.0795097,2.4393845,1.3297729,1.1247272.6121254,2.50881,1.0945778,4.1461391,1.4413528,4.700985,1.0041237,9.1727295.4281769,13.4214134-1.7217865.3829575-.1929665.871479-.551796,1.3388023-.7900238.0965118-.048233.205101-.0512733.3015366-.009037,1.5860863.7086067,2.6776848,1.3297691,3.277668,1.8665123,3.787323,3.3862572,5.5785103,7.9726219,5.97052,12.9932175.0090561.108551-.0784035.2020416-.1869888.1960106-.7809334-.0301666-1.4866257.0361824-2.1167946.1990051-.9830093.2563133-1.5740166.4251785-1.7760925.5126152-.581871.2502823-1.0613403.6272011-1.4412804,1.1367989-.0482941.06633-.1508446.0422211-.1658592-.0392036-.2562637-1.5619583-.5036163-2.8525467-.7387505-3.868721-.2442665-1.0614128-.3859787-1.7579651-.431179-2.086628-.0965118-.7327347-.2472839-1.4292831-.4493599-2.0866318-.1115303-.3648643-.2864456-.6332397-.5246735-.7990799-.4251404-.2985229-.8080978-.4040718-1.1487961-.3166122-1.1730194.2985229-.5940933,1.8785706-.3859787,2.6263771.1115303.3980331.3980484,1.5770493.8533745,3.5340233.051239.2170982-.1025505.4281769-.3257599.4462662-.9950142.0814247-1.7368546.1839333-2.2253036.3136101-.1989899.0512581-.4010735.0783844-.6060944.075386-.8594131-.0090561-2.4364433.0693474-4.7310982.2351875-2.5811768.1869545-5.3733368.1658401-8.3797264-.0633278-.006031,0-.2562599.0060387-.566925.0150948-.2622986.009037-.5004539,0-.7206421-.0211143-2.2795639-.2442436-4.2516308-.4191399-5.919136-.5186539-.1960449-.0120506-.3347397-.2020226-.2835026-.3919945.35285-1.3358231.6604271-2.7560539.9167576-4.2576981.2020054-1.1940956-.8654461-2.1650352-1.9479923-1.302639-.1024704.0814171-.1718979.196003-.2020054.3226471l-1.7640171,7.7766304c-.0361519.1568031-.2231369.223156-.3497601.1236382-1.1850147-.913662-2.4846573-1.4413719-3.8988476-1.5800667-.2563381-.0241127-.5276909.0482597-.8533764.0120697-.0904732-.0120697-.1447334-.1025238-.1115284-.1869431ZM21.4842529,73.8446732c-2.8646049-1.269455-4.2456646-3.6546249-4.6165504-6.7815628-.0150871-.1326752-.0120716-.2683716.0120773-.4010468.1628361-.934761.2653866-1.4594345.3105927-1.5740204.4492817-1.1699638,1.254364-1.9750633,2.4122944-2.4183311.1386948-.0542717.2864456-.0723648.4341946-.0572968.8745022.0965004,1.5137177.2352142,1.9178047.4191437,3.0696259,1.3991356,5.4758873,4.2697487,5.5331573,7.7374229.0543327,3.2264481-3.5913506,4.1461411-6.0035706,3.0756912ZM49.8950539,70.2985992c-.0211296.1206207-.1055641.2231369-.2201157.265358-1.058403.3859711-2.0926514.8925552-3.2144318,1.1578903-.7508278.1779175-1.3025856.3196487-1.6614723.4312134-1.278511.3919907-2.6474266.3919907-4.1883163.5156326-3.1902122.2532654-5.8648758-.5819626-9.3476448-1.640358-.0934944-.0271454-.1869907-.0452347-.2804127-.0542908l-1.1097088-.0844193c-.0934162-.0060349-.1718178-.0783997-.1929493-.1718826-.1297131-.6422729-.2050209-1.1729813-.2261524-1.5981369-.0964394-1.8815842-1.1730175-4.0586929-2.3399296-5.3040428-.0964394-.1025124-.1507664-.238205-.1477489-.3769188.0060387-.4191284.1386948-.8774643.3950329-1.3750114.1024704-.1929665.3136082-.3015366.5276909-.2683525,2.3067284.3497772,4.3873768.5668945,6.2418003.6482964,3.5521088.1598206,6.4438057.3618507,9.8511848.1869545,3.135952-.1628418,5.8589172-.4311981,8.1686592-.8020821.0693474-.0120506.1356773.033165.1477509.1025124.1477509.8051186.1658592,1.4895935.051239,2.0534668-.0211258.0995102-.0633087.1929855-.1236038.2713852-1.5589256,1.9720459-1.9449043,3.6998672-2.3308716,6.0427856ZM63.0208931,67.2741928c-.331646,3.4586182-3.1027565,7.1705399-6.85989,6.941391-1.3931389-.0874557-2.4364433-.4493027-3.1299896-1.0915604-1.577034-1.4534149-.9649086-4.1732788.0663986-5.9312439.9799232-1.6765518,2.3338966-2.979187,4.0647125-3.904911.0844421-.0452194.1718254-.0814018.2653198-.1055298.7417641-.1930046,1.3298225-.4794502,1.9358406-.4523048,1.2453156.0542717,2.1891632.4975395,2.8375092,1.3327866.6663857.8654099.9407616,1.9358597.8200989,3.2113724ZM33.242939,26.6422939c1.1259804-.015276,2.0517197.9767723,2.0696106,2.2147446.0182533,1.2376556-.8803215,2.2568493-2.0068893,2.2716808-1.1259003.0153179-2.0516396-.9767361-2.0695305-2.2147198-.0182552-1.2376385.8803139-2.2568359,2.0068092-2.2717056ZM44.6619606,29.3821297c-.1855888-1.1841183.4989777-2.2756805,1.5260124-2.4364777,1.0294685-.1618481,2.0124855.6673756,2.1977768,1.8533554.1855888,1.1841183-.4989052,2.2756805-1.5260124,2.4364777-1.0293961.1618481-2.0124054-.6673813-2.1977768-1.8533554ZM43.2883339,35.8690948c.5790024.0753975.9618874.3015518,1.1488686.675457.4312515.8624077-.7055473,1.6735268-1.4141884,2.0414085-.4733582.2442436-.9529037.379921-1.4413528.4010468-.8111191.0361862-1.4534302.2201195-2.3519287.1115685-1.2725525-.1537895-3.6365547-.7990799-3.1481018-2.499733.0301781-.1025314.0965118-.1929855.1839676-.256321.5577965-.3829384,1.0613403-.3919945,1.5167389-.0211258.0542564.0452538.1145477.0814362.1808777.1085815,1.4805145.5910072,2.8133583.578949,3.9923439-.0391998.711586-.370903,1.1549072-.5457802,1.3327751-.5216827Z" style="fill: #010101;"/>
</svg>