<svg id="Warstwa_1" xmlns="http://www.w3.org/2000/svg" version="1.1" viewBox="0 0 80 80">
  <path id="_x38_" d="M70.59375,40.1865234c0,.6245117-.5078125,1.1328125-1.1328125,1.1328125h-7.4443359c-.625,0-1.1337891-.5083008-1.1337891-1.1328125,0-.625.5087891-1.1333008,1.1337891-1.1333008h7.4443359c.625,0,1.1328125.5083008,1.1328125,1.1333008ZM19.1166992,40.1865234c0-.625-.5083008-1.1333008-1.1328125-1.1333008h-7.4448242c-.625,0-1.1333008.5083008-1.1333008,1.1333008,0,.6245117.5083008,1.1328125,1.1333008,1.1328125h7.4448242c.6245117,0,1.1328125-.5083008,1.1328125-1.1328125ZM40,19.3032227c.6245117,0,1.1328125-.5083008,1.1328125-1.1328125v-7.4453125c0-.6245117-.5083008-1.1328125-1.1328125-1.1328125s-1.1328125.5083008-1.1328125,1.1328125v7.4453125c0,.6245117.5083008,1.1328125,1.1328125,1.1328125ZM23.6313477,25.4208984c.2133789.2138672.4985352.331543.8017578.331543s.5878906-.1176758.8022461-.3320312c.4404297-.4418945.4404297-1.1611328-.0009766-1.6025391l-5.2646484-5.2651367c-.4277344-.4287109-1.1748047-.4291992-1.6044922.0004883-.4399414.4414062-.4399414,1.1606445.0009766,1.6025391l5.2651367,5.2651367ZM55.5673828,25.7524414c.3027344,0,.5869141-.1171875.8017578-.331543l5.2646484-5.2651367c.2138672-.2138672.3310547-.4985352.3310547-.8012695,0-.3032227-.1171875-.5878906-.3310547-.8017578-.4277344-.4287109-1.1757812-.4282227-1.6035156-.0004883l-5.265625,5.2661133c-.4404297.4414062-.4404297,1.1601562.0009766,1.6035156.2138672.2133789.4990234.3305664.8017578.3305664ZM47.9921875,20.8935547c.1386719.0571289.2851562.0859375.4335938.0859375.4599609,0,.8710938-.2744141,1.0458984-.6992188l2.8496094-6.8779297c.1162109-.2797852.1162109-.5883789,0-.8681641-.1162109-.2792969-.3330078-.496582-.6123047-.6123047s-.5878906-.1166992-.8681641,0c-.2792969.1162109-.4970703.3334961-.6123047.612793l-2.8496094,6.8779297c-.1162109.2797852-.1162109.5883789,0,.8681641.1162109.2792969.3330078.496582.6132812.612793ZM30.5283203,20.2802734c.1757812.4248047.5864258.6992188,1.0463867.6992188.1489258,0,.2949219-.0288086.4335938-.0864258.2797852-.1157227.4980469-.3339844.6137695-.6137695.1152344-.2792969.1152344-.5874023-.0009766-.8662109l-2.8496094-6.8793945c-.1166992-.2807617-.3364258-.4990234-.6181641-.6142578-.2797852-.1152344-.5864258-.1132812-.8618164.0024414-.2797852.1157227-.4980469.3339844-.6137695.6137695-.1152344.2792969-.1152344.5874023.0009766.8662109l2.8496094,6.878418ZM67.6523438,50.4140625l-6.8779297-2.8486328c-.28125-.1152344-.5898438-.1152344-.8691406,0-.2802734.1162109-.4970703.3339844-.6123047.6123047-.1162109.2792969-.1162109.5869141-.0009766.8662109.1162109.2802734.3339844.4980469.6132812.6142578l6.8808594,2.8505859c.1376953.0566406.2832031.0849609.4316406.0849609.4599609,0,.8701172-.2744141,1.046875-.6982422.1162109-.2802734.1162109-.5888672,0-.8681641-.1162109-.2802734-.3330078-.4970703-.6123047-.6132812ZM12.3481445,29.9580078l6.878418,2.8496094c.1386719.0576172.284668.0864258.4335938.0864258.4589844,0,.8696289-.2739258,1.046875-.6987305.1162109-.2797852.1162109-.5883789,0-.8681641-.1157227-.2792969-.3334961-.4970703-.612793-.612793l-6.8779297-2.8491211c-.2802734-.1162109-.5888672-.1162109-.8681641,0-.2797852.1162109-.4975586.3334961-.612793.6123047-.1162109.2792969-.1162109.5874023-.0009766.8666992.1157227.2797852.3339844.4980469.6137695.6137695ZM59.2929688,31.3271484c-.1162109.2797852-.1162109.5883789,0,.8686523.1767578.4243164.5878906.6982422,1.046875.6982422.1484375,0,.2949219-.0288086.4345703-.0864258l6.8779297-2.8496094c.2792969-.1157227.4960938-.3330078.6123047-.6123047.1162109-.2797852.1162109-.5883789,0-.8681641s-.3349609-.4975586-.6152344-.6132812c-.2792969-.1142578-.5859375-.1152344-.8652344.0009766l-6.8789062,2.8491211c-.2792969.1157227-.4960938.3334961-.6123047.612793ZM20.7080078,49.0439453c.1152344-.2792969.1147461-.5869141-.0009766-.8662109-.2407227-.5771484-.9052734-.8515625-1.4804688-.6123047l-6.878418,2.8486328c-.2797852.1152344-.4970703.3330078-.6132812.6132812-.1157227.2792969-.1157227.5878906.0004883.8671875.1757812.4248047.5864258.6992188,1.0463867.6992188.1474609,0,.2929688-.0283203.434082-.0859375l6.878418-2.8496094c.2802734-.1162109.4980469-.3339844.6137695-.6142578ZM63.7949219,63.9814453v5.6660156c0,.625-.5078125,1.1328125-1.1328125,1.1328125H17.3374023c-.6245117,0-1.1328125-.5078125-1.1328125-1.1328125v-5.6660156c0-2.4990234,2.0332031-4.5322266,4.5322266-4.5322266h2.4451904l4.8414307-27.0537109c.4770508-2.7045898,2.8212891-4.6679688,5.5742188-4.6679688h12.8046875c2.7529297,0,5.0966797,1.9633789,5.5742188,4.6689453l4.8292847,27.0527344h2.4568481c2.4990234,0,4.5322266,2.0332031,4.5322266,4.5322266ZM40.0192871,46.9892578c1.2429199-.0106812,2.2521973-1.0241699,2.2521973-2.2705078,0-1.2519531-1.0195312-2.2714844-2.2714844-2.2714844-1.2524414,0-2.2719727,1.0195312-2.2719727,2.2714844,0,1.2463379,1.0092773,2.2598267,2.2526855,2.2705078.0068359-.0001221.0124512-.0039062.0192871-.0039062s.0124512.0037842.0192871.0039062ZM54.5048218,59.4492188l-4.758728-26.6552734c-.2822266-1.6298828-1.6884766-2.8115234-3.34375-2.8115234h-12.8144531c-1.6499023.0043945-3.0517578,1.1860352-3.3325195,2.809082l-4.7601929,26.6577148h13.3720093v-10.3642578c-1.9462891-.5066528-3.394043-2.2635498-3.394043-4.3662109,0-2.4960938,2.0307617-4.5268555,4.5268555-4.5268555s4.5263672,2.0307617,4.5263672,4.5268555c0,2.1026611-1.4473877,3.8595581-3.3935547,4.3662109v10.3642578h13.3720093ZM20.7368164,61.7158203c-1.2495117,0-2.2661133,1.0166016-2.2661133,2.265625v4.5332031h43.0585938v-4.5332031c0-1.2490234-1.0166016-2.265625-2.2666016-2.265625H20.7368164Z"/>
</svg>