<svg id="Warstwa_1" xmlns="http://www.w3.org/2000/svg" version="1.1" viewBox="0 0 80 80">
  <path id="_x35_" d="M39.4169312,33.5695801l-.1052246,12.0942993-.5630493,8.8702393c-.2714233,2.6820068-1.3918457,5.1622314-3.1754761,7.0757446l.7720947,9.0879517c.0523071.6131592-.40271,1.1530762-1.0158691,1.2045898-.0319824.0028687-.0639038.0043335-.0957642.0043335-.5725708,0-1.0594482-.4389648-1.1088257-1.0202637l-.8156128-9.5951538c-.0283203-.3308716.0928955-.6581421.3301392-.8903809,1.6290894-1.5957031,2.6544189-3.7443237,2.8880615-6.050354l.557312-8.7672729.1030273-12.0333252c.0072632-.8294067-.5681152-1.7836304-1.5108032-1.8815918-.4476929-.0457153-.8272095.0428467-1.065918.25177-.2094727.1826782-.3203125.4603882-.3314209.8239746l-.2389526,8.2284546c-.017395.6037598-.5130005,1.0819092-1.1130981,1.0819092-.0109253,0-.0217896,0-.0334473-.0007324-.6153564-.017395-1.0993042-.5311279-1.0811768-1.1464844l.2387695-8.227356c0-.0006714.0002441-.0013428.0002441-.0020142l.1658936-5.7116699c.022522-.791687-.7212524-1.5471191-1.6254272-1.6494141-.4542847-.048584-.8881836.0682373-1.1929932.3265381-.1738892.1478882-.3851929.4094849-.4067383.817688l-.6534424,12.7511597c-.0076904.1503906-.0456543.291748-.1065063.4198608-.0292358.0620117-.0785522.1085815-.1182251.1633911-.0426636.0588379-.0765381.1240845-.1295166.1734009-.0444336.0411987-.1015625.0645142-.1523438.0980835-.0674438.0449829-.1303101.0950928-.2067871.1246338-.0497437.019043-.1062012.019043-.1591187.0310059-.0794678.0180664-.1553345.046814-.2398682.046814-.0188599,0-.0384521-.0006714-.0580444-.0014038-.614624-.031189-1.0870361-.5551758-1.0558472-1.1704712l.6531372-12.7495117c0-.0006104.0002441-.0010986.0002441-.001709l.1724243-3.364563c.0384521-.7539673-.6885986-1.4810791-1.5877075-1.5870361-.46875-.0551147-.9244995.0638428-1.2444458.3280029-.1719971.1422119-.3824463.3918457-.4107666.7749634l-.4020386,5.4396362c-.000061.0006714.0001221.0012817.000061.0019531l-.7967529,10.7772827c-.0457153.614624-.5870361,1.0790405-1.1937256,1.0297241-.6138916-.0457764-1.074646-.579834-1.0296631-1.1937256l.7966919-10.7786865c.0592041-.8179321-.6688232-1.5689087-1.6239014-1.6740723-.4992676-.0529785-.9934692.0805664-1.3504639.3701172-.2024536.1647339-.4520264.4527588-.494873.8931885l-1.4369507,15.2688599c2.1049805-.5089722,5.7504272-.8199463,8.7695923,1.8781128.4592896.4100342.4992065,1.114624.088501,1.5732422-.4085083.4592896-1.1131592.499939-1.5731812.088501-3.374939-3.0136108-8.0495605-.9679565-8.0960083-.9483643-.008728.0039062-.0181274.003479-.0269165.0071411-.0412598.017395-.0862427.0220337-.1296997.0343628-.0842896.0238037-.1676025.0441284-.2529297.0477905-.0158081.0006714-.02948.008606-.0454102.008606-.0348511,0-.0703735-.0014648-.105957-.0050659-.0198975-.0018921-.0355225-.0137329-.0550537-.0166016-.1025391-.0148926-.1992798-.0458984-.2939453-.088623-.0305786-.0137939-.0634766-.020752-.0924072-.0371094-.1117554-.0631714-.2155151-.142395-.3023682-.2444458-3.538208-4.1520996-8.3398438-3.7522583-8.9232178-3.684082-1.0101318.2924194-1.623291.7982178-1.6450195,1.3605957-.0217896.5594482.5108032,1.3605957,1.7313843,1.7995605l.1037598.0369873c2.6696777.9586182,7.6373901,2.742981,9.0654297,9.0023804.539917,2.3706665,1.552124,4.3930054,3.0084839,6.010498.243103.2692261.3396606.6400146.2590942.9934082l-2.2189941,9.7373657c-.1182861.5167236-.5776367.8671875-1.0863037.8671875-.0820312,0-.1647339-.008728-.2481689-.0275879-.6000977-.137146-.9760132-.734314-.8395996-1.3344727l2.0942383-9.1887817c-1.4912109-1.8083496-2.5731812-4.0643921-3.1427612-6.5620117-1.1559448-5.0693359-5.2180786-6.5278931-7.6446533-7.4000854l-.1052246-.0377808c-1.9810181-.711853-3.2689819-2.3126221-3.2044067-3.9822998.0616455-1.5978394,1.3155518-2.8851318,3.3538818-3.4446411.0428467-.0115967.0863647-.0209961.1298828-.0275879.2282715-.0344238,5.0233765-.6889648,9.2679443,2.7481689l1.3779907-14.6450806c.0914307-.9447632.5558472-1.7995605,1.3082886-2.4112549.8156738-.6625366,1.9099121-.9746094,2.9990845-.8563232.5942993.0654907,1.1410522.2632446,1.6281738.5439453l.1547852-2.0938721c.0674438-.911438.4992065-1.7386475,1.2153931-2.3300171.7851562-.6494751,1.848999-.9550171,2.9243774-.8222046,2.0913086.2460327,3.6521606,1.9657593,3.5527954,3.9141235l-.0097656.190979c.5309448-.1777344,1.1044922-.2512207,1.6867065-.1844482,2.0774536.2336426,3.6608276,1.9599609,3.6035156,3.9286499l-.0739746,2.5473022c.4725952-.1381226.9911499-.1838989,1.534668-.1273193,1.9875488.2060547,3.529541,2.0151367,3.5106812,4.1187744ZM75.3921509,39.0757446c-.0420532-.0115967-.0856323-.0209961-.1291504-.0275879-.2289429-.0350342-5.0233765-.6878662-9.2671509,2.74823l-1.3780518-14.6480103c-.0914307-.9418945-.5558472-1.7966919-1.3082886-2.4083862-.8164062-.6640015-1.9099121-.9767456-2.9998779-.8563232-.5939941.0654297-1.140564.2631836-1.6275024.5438232l-.1546631-2.09375c-.0675049-.911438-.4984741-1.7386475-1.2154541-2.3300171-.7865601-.6494751-1.8554688-.9535522-2.9250488-.8222046-2.0913086.2460327-3.6514282,1.9657593-3.552063,3.914856l.0097656.1903076c-.5303955-.1775513-1.1035767-.2508545-1.6867065-.1845093-2.0775146.2336426-3.6608887,1.9599609-3.6035156,3.9293213l.0739746,2.5467529c-.4733276-.1384277-.9923096-.1843872-1.534729-.1274414-1.9868164.2060547-3.529541,2.0151367-3.5113525,4.118042l.1074219,12.1566772.5652466,8.8499756c.2677612,2.6434937,1.3881226,5.1208496,3.171814,7.0343628l-.7721558,9.0879517c-.0522461.6131592.402771,1.1530762,1.0159302,1.2045898.0319214.0028687.0638428.0043335.0957642.0043335.5725708,0,1.0594482-.4389648,1.1087646-1.0202637l.8156738-9.5951538c.0283203-.3308716-.0928955-.6581421-.3302002-.8903809-1.6290283-1.5957031-2.6543579-3.7443237-2.8843994-6.0090332l-.5595093-8.7468872-.1052246-12.0950317c-.0072632-.8286743.5689087-1.7836304,1.5115967-1.8815918.4484253-.0464478.8272095.0428467,1.065918.25177.2089844.1828613.3200073.460083.3309326.8250732l.2394409,8.227356c.017395.6037598.5122681,1.0819092,1.1130981,1.0819092.0109253,0,.0217896,0,.0334473-.0007324.6152954-.017395,1.0993042-.5311279,1.0811768-1.1464844l-.4049072-13.9403687c-.022522-.7923584.7212524-1.5477905,1.6254272-1.6500854.4534912-.048584.8881836.0682373,1.1929321.3265381.1741943.1480713.3853149.4099731.4063721.8192749l.6530762,12.7495728c.0076904.1497803.0450439.2908325.1054077.4185181.0341187.0727539.090271.1287842.1386108.1915894.0371704.0482788.06427.104126.1086426.1456299.0445557.0413818.1018677.0648804.1528931.0985107.067688.0452271.1309204.09552.2078247.1251831.0460205.0175171.0986328.0172119.1474609.0287476.0830078.0197754.1629028.0490112.2515869.0490112.0188599,0,.0384521-.0006714.0580444-.0014038.614624-.031189,1.0870361-.5551758,1.0557861-1.1704712l-.8250122-16.1151123c-.0384521-.7546387.6879272-1.4817505,1.5869751-1.5877075.4665527-.0543823.9251709.0638428,1.2451782.3280029.1719971.1422119.3824463.3918457.4107056.7749634l1.1980591,16.2188721c.0457153.614624.5906372,1.0812378,1.1936646,1.0297241.6139526-.0457764,1.074707-.579834,1.0297241-1.1937256l-.7960205-10.7772217c-.0602417-.8185425.668335-1.5703125,1.62323-1.6755371.494873-.0537109.9934082.0791016,1.3511963.3701172.2024536.1647339.4520264.4527588.494873.8903198l1.4369507,15.2717285c-2.1051025-.5090942-5.7509766-.8206177-8.7695923,1.8781128-.4592896.4100342-.4992676,1.114624-.088501,1.5732422.4092407.4592896,1.1130981.499939,1.5731812.088501,3.3510132-2.9910889,7.9066162-1.0311279,8.0959473-.9483643.0087891.0039062.0181885.003479.0270386.0071411.0415649.0175171.086792.0221558.1305542.0345459.0835571.0234375.1660156.0437012.2506714.0473633.0162354.0007324.0303955.0088501.0467529.0088501.0348511,0,.0703735-.0014648.105957-.0050659.0203857-.0018921.036438-.0140381.0564575-.0170288.100647-.0148315.1956177-.0454102.2887573-.0870361.0321045-.0143433.0665894-.0217285.0969238-.0388794.1114502-.0629883.2148438-.1421509.3016357-.2438354,3.5527344-4.1695557,8.3093262-3.7529907,8.9210205-3.6848145,1.0115967.2924194,1.6254883.7989502,1.6472168,1.3613281.0217896.5594482-.5108032,1.3605957-1.7313843,1.7995605l-.1030273.0369873c-2.6696167.9586182-7.6381226,2.7422485-9.0662231,9.0031128-.5318604,2.3358154-1.5724487,4.4140625-3.0092163,6.0097656-.2423096.2698975-.3388672.6400146-.2583008.9934082l2.2189941,9.7373657c.1182861.517395.5776367.8671875,1.0863037.8671875.0819702,0,.1646729-.008728.2481689-.0275879.6000977-.137146.9760132-.734314.8395996-1.3344727l-2.0942383-9.1895142c1.4912109-1.8082886,2.5731201-4.0643311,3.1427612-6.5605469,1.1559448-5.0708008,5.2181396-6.5293579,7.6453857-7.4008179l.1044922-.0377808c1.9810181-.711853,3.269043-2.3126221,3.2044067-3.9822998-.0623779-1.5978394-1.3162842-2.8851318-3.3553467-3.4446411ZM39.6915894,23.3828125c-2.8833618,0-5.223877-2.3406372-5.223877-5.2237549,0-4.1834106,4.1463013-9.9346313,4.3248291-10.1723633.2078857-.2897949.53479-.4608154.8914185-.4608154.371521-.0222168.6912231.1635742.8991089.4459229.1785278.237793,4.3320312,5.8627319,4.3320312,10.1872559,0,2.8831177-2.3405151,5.2237549-5.2235107,5.2237549ZM42.6859741,18.1590576c0-2.4817505-1.835144-5.7363281-2.9871216-7.5271606-1.2705688,2.0137329-3.0019531,5.2756958-3.0019531,7.5271606,0,1.6495972,1.3449707,2.9945679,2.9946899,2.9945679,1.649353,0,2.9943848-1.3449707,2.9943848-2.9945679Z"/>
</svg>