<svg id="Warstwa_1" xmlns="http://www.w3.org/2000/svg" version="1.1" viewBox="0 0 80 80">
  <path id="_x34_" d="M30.0043945,12.9492188c-.7783203-.8999023-1.9199219-1.4165039-3.1333008-1.4165039H6.9350586c-1.2133789,0-2.3554688.5166016-3.1333008,1.4169922-.7407227.8569336-1.0722656,1.9838867-.909668,3.0932617l5.8222656,38.6337891c.1730347,1.1798096.8893433,2.177063,1.8762207,2.7808838-.1160889.3131104-.1887207.6473999-.1887207,1.0003662v4.1689453c0,1.5976562,1.2998047,2.8974609,2.8969727,2.8974609h7.2084961c1.597168,0,2.8969727-1.2998047,2.8969727-2.8974609v-4.1689453c0-.3529053-.0726318-.6871948-.1886597-1.0002441.9868774-.6035767,1.703125-1.6000977,1.8761597-2.7780762l5.8227539-38.6391602c.1621094-1.1069336-.1694336-2.2338867-.9101562-3.0913086ZM20.8163452,55.5917969c-.1029053-.0111084-.203186-.03125-.309021-.03125h-7.2084961c-.105835,0-.2061157.0201416-.309021.03125h-.2319946c-.7983398,0-1.4804688-.5478516-1.5874023-1.2763672l-.6635742-4.4033203h12.7927856l-.6638794,4.4052734c-.1069336.7265625-.7890625,1.2744141-1.5874023,1.2744141h-.2319946ZM12.8842773,62.5498047h8.0375977v.0771484c0,.2285156-.1860352.4150391-.4145508.4150391h-7.2084961c-.2285156,0-.4145508-.1865234-.4145508-.4150391v-.0771484ZM12.8842773,60.0673828v-1.609375c0-.1739502.1082764-.3222046.2605591-.3837891h7.5164795c.1522827.0615845.2605591.2098389.2605591.3837891v1.609375h-8.0375977ZM10.1325684,47.4287109l-1.2055664-8h15.9524536l-1.2056274,8h-13.5412598ZM8.5528564,36.9462891l-3.2047119-21.265625c-.0585938-.3984375.0595703-.7919922.3325195-1.1079102.3061523-.3544922.7631836-.5576172,1.2543945-.5576172h19.9360352c.4912109,0,.9482422.203125,1.2548828.5581055.2724609.3154297.390625.7089844.3325195,1.1054688l-3.2049561,21.2675781H8.5528564ZM27.4194336,17.2607422c0,.6367188-.5175781,1.1542969-1.1542969,1.1542969H7.5410156c-.6367188,0-1.1542969-.5175781-1.1542969-1.1542969s.5175781-1.1542969,1.1542969-1.1542969h18.7241211c.6367188,0,1.1542969.5175781,1.1542969,1.1542969ZM55.2324219,58.3496094c0,2.7597656-2.2451172,5.0048828-5.0048828,5.0048828-.6347656,0-1.1513672-.5166016-1.1513672-1.1513672s.5166016-1.1513672,1.1513672-1.1513672c1.4902344,0,2.7021484-1.2119141,2.7021484-2.7021484,0-.6347656.5166016-1.1513672,1.1513672-1.1513672s1.1513672.5166016,1.1513672,1.1513672ZM76.1787109,56.8378906l-14.9150391-18.2275391c-1.1445312-1.3994141-3.2177734-1.6074219-4.6181641-.4609375l-2.4755859,2.0258789c-.6462402.5288696-1.0257568,1.256897-1.1480713,2.0229492h-20.0965576c-2.2070312,0-4.0024414,1.7958984-4.0024414,4.0029297,0,.2537842.0269165.5037842.0736694.7495728-.7526245.5880737-1.2460327,1.4934692-1.2460327,2.5199585v10.3046875c0,3.3808594,2.7509766,6.1318359,6.1323242,6.1318359h17.8515625c3.3808594,0,6.1318359-2.7509766,6.1318359-6.1318359v-9.9004517l10.7568359,13.1465454c.5546875.6757812,1.3408203,1.0966797,2.2177734,1.1845703.1103516.0097656.2197266.015625.3291016.015625.7636719,0,1.4794922-.2558594,2.0712891-.7402344l2.4755859-2.0253906c1.4003906-1.1455078,1.6074219-3.2167969.4619141-4.6181641ZM74.6123047,59.0136719c-.0263672.2607422-.1513672.4951172-.3535156.6611328l-2.4765625,2.0253906c-.2011719.1640625-.4511719.2421875-.7177734.2128906-.2607422-.0253906-.4951172-.1503906-.6591797-.3505859l-14.9150391-18.2265625c-.3417969-.4179688-.2802734-1.0371094.1367188-1.3789062l2.4765625-2.0258789c.1767578-.1445312.390625-.2207031.6191406-.2207031.2958984,0,.5722656.1308594.7587891.3583984l14.9150391,18.2270508c.1650391.2021484.2421875.4570312.2158203.7177734ZM51.734375,63.6044922h-17.8515625c-2.1118164,0-3.8295898-1.7177734-3.8295898-3.8291016v-3.2337036c.2897339.0861816.590332.1467896.9077148.1467896h23.6943359c.3175659,0,.6182861-.0606079.9082031-.1468506v3.2337646c0,2.1113281-1.7177734,3.8291016-3.8291016,3.8291016ZM30.9609375,48.5634766h23.6943359c.5009766,0,.9082031.4072266.9082031.9072266v1.3212891h-25.5102539v-1.3212891c0-.5.4072266-.9072266.9077148-.9072266ZM55.5634766,53.4775391c0,.5009766-.4072266.9082031-.9082031.9082031h-23.6943359c-.5004883,0-.9077148-.4072266-.9077148-.9082031v-.3828125h25.5102539v.3828125ZM54.6552734,46.2607422h-23.4216309c-.0007324-.0202026-.0085449-.0393066-.0085449-.0595703,0-.9375.7626953-1.7001953,1.7001953-1.7001953h20.5415039c.0149536,0,.0274048-.0079956.0422363-.0085449.0653687.100708.1212158.2055054.1989746.3005371l1.223877,1.4957275c-.0926514-.0080566-.1818848-.0279541-.2766113-.0279541ZM58.9814453,41.5849609c.3066406.0283203.5830078.1748047.7792969.4111328l7.0888672,8.5673828c.4052734.4892578.3359375,1.2158203-.1533203,1.6201172-.2070312.1708984-.4677734.2646484-.7333984.2646484-.34375,0-.6669922-.1523438-.8867188-.4169922l-7.0888672-8.5664062c-.1962891-.2363281-.2890625-.5361328-.2597656-.8417969.0292969-.3066406.1757812-.5830078.4130859-.7783203.234375-.1962891.5341797-.2919922.8408203-.2597656ZM67.0517578,52.5400391c.2363281-.1962891.53125-.2861328.8417969-.2597656.3066406.0292969.5830078.1757812.7783203.4130859l.3652344.4414062c.4042969.4882812.3369141,1.2148438-.1513672,1.6201172-.2080078.1708984-.4677734.2646484-.734375.2646484-.34375,0-.6669922-.1513672-.8867188-.4160156l-.3662109-.4433594c-.4052734-.4882812-.3359375-1.2158203.1533203-1.6201172Z"/>
</svg>