<svg id="Warstwa_1" xmlns="http://www.w3.org/2000/svg" version="1.1" viewBox="0 0 80 80">
  <path id="_x37_" d="M48,45.3232422h-4.2099609v-4.2104492c0-.6176758-.5029297-1.1201172-1.1201172-1.1201172h-5.3398438c-.6176758,0-1.1201172.5024414-1.1201172,1.1201172v4.2104492h-4.2099609c-.6176758,0-1.1201172.5029297-1.1201172,1.1201172v5.3398438c0,.6171875.5024414,1.1201172,1.1201172,1.1201172h4.2099609v4.2099609c0,.6171875.5024414,1.1201172,1.1201172,1.1201172h5.3398438c.6171875,0,1.1201172-.5029297,1.1201172-1.1201172v-4.2099609h4.2099609c.6171875,0,1.1201172-.5029297,1.1201172-1.1201172v-5.3398438c0-.6171875-.5029297-1.1201172-1.1201172-1.1201172ZM37.3300781,50.6533203h-4.2099609v-3.0800781h4.2099609c.6230469,0,1.1298828-.5068359,1.1298828-1.1298828v-4.2099609h3.0800781v4.2099609c0,.6230469.5068359,1.1298828,1.1298828,1.1298828h4.2099609v3.0800781h-4.2099609c-.6230469,0-1.1298828.5068359-1.1298828,1.1298828v4.2099609h-3.0800781v-4.2099609c0-.6230469-.5068359-1.1298828-1.1298828-1.1298828ZM64,22.9926758h-9.8798828v-7.8798828c0-1.7202148-1.3994141-3.1201172-3.1201172-3.1201172h-22c-1.7202148,0-3.1201172,1.3999023-3.1201172,3.1201172v7.8798828h-9.8798828c-1.7202148,0-3.1201172,1.3999023-3.1201172,3.1201172v37.0004883c0,1.7207031,1.3999023,3.1201172,3.1201172,3.1201172h48c1.7207031,0,3.1201172-1.3994141,3.1201172-3.1201172V26.112793c0-1.7202148-1.3994141-3.1201172-3.1201172-3.1201172ZM64.8798828,63.1132812c0,.4853516-.3945312.8798828-.8798828.8798828H16c-.4853516,0-.8798828-.3945312-.8798828-.8798828v-28.8803711h3.7597656v3.8798828c0,.6176758.5024414,1.1201172,1.1201172,1.1201172h7c.6176758,0,1.1201172-.5024414,1.1201172-1.1201172v-3.8798828h23.7597656v3.8798828c0,.6176758.5029297,1.1201172,1.1201172,1.1201172h7c.6171875,0,1.1201172-.5024414,1.1201172-1.1201172v-3.8798828h3.7597656v28.8803711ZM15.1201172,26.112793c0-.4853516.3945312-.8798828.8798828-.8798828h48c.4853516,0,.8798828.3945312.8798828.8798828v5.8798828H15.1201172v-5.8798828ZM28.1201172,15.112793c0-.4853516.3945312-.8798828.8798828-.8798828h22c.4853516,0,.8798828.3945312.8798828.8798828v7.8798828h-2.7597656v-4.8798828c0-.6176758-.5029297-1.1201172-1.1201172-1.1201172h-16c-.6176758,0-1.1201172.5024414-1.1201172,1.1201172v4.8798828h-2.7597656v-7.8798828ZM33.1201172,19.2329102h13.7597656v3.7597656h-13.7597656v-3.7597656ZM54.1201172,34.2329102h4.7597656v2.7597656h-4.7597656v-2.7597656ZM21.1201172,34.2329102h4.7597656v2.7597656h-4.7597656v-2.7597656Z"/>
</svg>