<svg id="Warstwa_1" xmlns="http://www.w3.org/2000/svg" version="1.1" viewBox="0 0 80 80">
  <path id="_x39_" d="M41.8056641,65.1132812H14.9306641V15.362793h29.75v6.875c0,.6201172.5048828,1.125,1.125,1.125h6.875v11.875c0,.6201172.5048828,1.125,1.125,1.125s1.125-.5048828,1.125-1.125v-13c0-.0233154-.012085-.0444336-.0135498-.067627-.0062256-.1027832-.0259399-.2017212-.0598145-.2988892-.0114746-.0328979-.0198364-.0645142-.0342407-.0961914-.0548096-.1205444-.1240234-.2351074-.2214966-.3327026l-8.0009766-8.0014648c-.0969238-.0957642-.2097778-.1646118-.3284302-.2191772-.0348511-.0160522-.0704956-.0255737-.1068726-.0379028-.0961304-.032959-.1936035-.0521851-.2947388-.0582275-.0223999-.0013428-.0422363-.0128174-.0648804-.0128174H13.8056641c-.6201172,0-1.125.5048828-1.125,1.125v52.0004883c0,.6201172.5048828,1.125,1.125,1.125h28c.6201172,0,1.125-.5048828,1.125-1.125s-.5048828-1.125-1.125-1.125ZM46.9306641,16.9536133l4.1591797,4.1591797h-4.1591797v-4.1591797ZM19.6806641,22.237793c0-.6201172.5048828-1.125,1.125-1.125h13c.6201172,0,1.125.5048828,1.125,1.125s-.5048828,1.125-1.125,1.125h-13c-.6201172,0-1.125-.5048828-1.125-1.125ZM19.6806641,27.237793c0-.6201172.5048828-1.125,1.125-1.125h5c.6201172,0,1.125.5048828,1.125,1.125s-.5048828,1.125-1.125,1.125h-5c-.6201172,0-1.125-.5048828-1.125-1.125ZM47.9306641,27.237793c0,.6201172-.5048828,1.125-1.125,1.125h-17c-.6201172,0-1.125-.5048828-1.125-1.125s.5048828-1.125,1.125-1.125h17c.6201172,0,1.125.5048828,1.125,1.125ZM19.6806641,32.237793c0-.6201172.5048828-1.125,1.125-1.125h14c.6201172,0,1.125.5048828,1.125,1.125s-.5048828,1.125-1.125,1.125h-14c-.6201172,0-1.125-.5048828-1.125-1.125ZM46.8056641,33.362793h-8c-.6201172,0-1.125-.5048828-1.125-1.125s.5048828-1.125,1.125-1.125h8c.6201172,0,1.125.5048828,1.125,1.125s-.5048828,1.125-1.125,1.125ZM19.6806641,37.237793c0-.6201172.5048828-1.125,1.125-1.125h4c.6201172,0,1.125.5048828,1.125,1.125s-.5048828,1.125-1.125,1.125h-4c-.6201172,0-1.125-.5048828-1.125-1.125ZM41.8056641,38.362793h-13c-.6201172,0-1.125-.5048828-1.125-1.125s.5048828-1.125,1.125-1.125h13c.6201172,0,1.125.5048828,1.125,1.125s-.5048828,1.125-1.125,1.125ZM19.6806641,42.2382812c0-.6201172.5048828-1.125,1.125-1.125h9c.6201172,0,1.125.5048828,1.125,1.125s-.5048828,1.125-1.125,1.125h-9c-.6201172,0-1.125-.5048828-1.125-1.125ZM37.8056641,43.3632812h-4c-.6201172,0-1.125-.5048828-1.125-1.125s.5048828-1.125,1.125-1.125h4c.6201172,0,1.125.5048828,1.125,1.125s-.5048828,1.125-1.125,1.125ZM19.6806641,47.2382812c0-.6201172.5048828-1.125,1.125-1.125h5c.6201172,0,1.125.5048828,1.125,1.125s-.5048828,1.125-1.125,1.125h-5c-.6201172,0-1.125-.5048828-1.125-1.125ZM35.8056641,48.3632812h-6c-.6201172,0-1.125-.5048828-1.125-1.125s.5048828-1.125,1.125-1.125h6c.6201172,0,1.125.5048828,1.125,1.125s-.5048828,1.125-1.125,1.125ZM34.8056641,53.3632812h-14c-.6201172,0-1.125-.5048828-1.125-1.125s.5048828-1.125,1.125-1.125h14c.6201172,0,1.125.5048828,1.125,1.125s-.5048828,1.125-1.125,1.125ZM30.8056641,58.8632812c.6201172,0,1.125.5048828,1.125,1.125s-.5048828,1.125-1.125,1.125c-1.2666016,0-1.9599609-.6259766-2.4189453-1.0400391-.3510742-.3154297-.5112305-.4599609-.9130859-.4599609s-.5625.1445312-.9145508.4609375c-.4594727.4140625-1.1538086,1.0390625-2.4194336,1.0390625s-1.9599609-.625-2.4194336-1.0380859c-.3520508-.3173828-.5126953-.4619141-.9145508-.4619141-.6201172,0-1.125-.5048828-1.125-1.125s.5048828-1.125,1.125-1.125c1.265625,0,1.9599609.625,2.4194336,1.0380859.3520508.3173828.5126953.4619141.9145508.4619141s.5625-.1445312.9145508-.4609375c.4594727-.4140625,1.1538086-1.0390625,2.4194336-1.0390625,1.2646484,0,1.9316406.5996094,2.4179688,1.0380859.3520508.3173828.5117188.4619141.9140625.4619141ZM51.8056641,37.1176758c-8.3369141,0-15.1201172,6.7827148-15.1201172,15.1206055,0,8.3369141,6.7832031,15.1201172,15.1201172,15.1201172s15.1201172-6.7832031,15.1201172-15.1201172c0-8.3378906-6.7832031-15.1206055-15.1201172-15.1206055ZM64.6855469,52.2382812c0,7.1015625-5.7783203,12.8798828-12.8798828,12.8798828s-12.8798828-5.7783203-12.8798828-12.8798828c0-7.1025391,5.7783203-12.8803711,12.8798828-12.8803711s12.8798828,5.777832,12.8798828,12.8803711ZM59.8056641,48.4482422h-4.2099609v-4.2099609c0-.6171875-.5029297-1.1201172-1.1201172-1.1201172h-5.3398438c-.6171875,0-1.1201172.5029297-1.1201172,1.1201172v4.2099609h-4.2099609c-.6171875,0-1.1201172.5029297-1.1201172,1.1201172v5.3398438c0,.6171875.5029297,1.1201172,1.1201172,1.1201172h4.2099609v4.2099609c0,.6171875.5029297,1.1201172,1.1201172,1.1201172h5.3398438c.6171875,0,1.1201172-.5029297,1.1201172-1.1201172v-4.2099609h4.2099609c.6171875,0,1.1201172-.5029297,1.1201172-1.1201172v-5.3398438c0-.6171875-.5029297-1.1201172-1.1201172-1.1201172ZM49.1357422,53.7783203h-4.2099609v-3.0800781h4.2099609c.6230469,0,1.1298828-.5068359,1.1298828-1.1298828v-4.2099609h3.0800781v4.2099609c0,.6230469.5068359,1.1298828,1.1298828,1.1298828h4.2099609v3.0800781h-4.2099609c-.6230469,0-1.1298828.5068359-1.1298828,1.1298828v4.2099609h-3.0800781v-4.2099609c0-.6230469-.5068359-1.1298828-1.1298828-1.1298828Z"/>
</svg>