<svg id="Warstwa_1" xmlns="http://www.w3.org/2000/svg" version="1.1" viewBox="0 0 80 80">
  <path id="_x31_" d="M69.2421875,55.3964844c-.651123-.5388184-1.3956299-.5623169-2.0206299-.4515991-.0072632-.7660522-.3018799-1.4658813-.8905029-2.0444946-1.4335938-1.4335938-3.4169922-.5908203-6.1630859.5732422-1.8866577.8042603-4.7318726,2.0141602-8.2580566,2.7855835-.8115234-.5414429-1.8257446-.7387695-3.0300293-.5609741-6.4101562.9667969-8.3891602-.3027344-10.9365234-1.9375-2.7562866-1.7615967-6.1868896-3.9385376-15.8466187-3.7929077-.154541-.2182007-.3406372-.4180908-.5752563-.5674438-.3535156-.2402344-.7802734-.3671875-1.2333984-.3671875h-8.4624023c-1.2436523,0-2.2558594,1.0117188-2.2558594,2.2548828v15.2470703c0,1.25,1.012207,2.2666016,2.2558594,2.2666016h8.4624023c.4301758,0,.8530273-.1240234,1.2290039-.3642578.1611938-.1063843.3021851-.2404785.4307251-.3839111,2.206604.6464844,8.8289185,2.3594971,17.046814,2.3594971,11.3461914,0,21.1625977-3.1162109,29.1430664-9.2382812.0214844-.0136719,2.1914062-1.3964844,2.2851562-3.3457031.0341797-.5166016-.0751953-1.5214844-1.1806641-2.4326172ZM20.2739258,66.5341797l-8.4462891.0009766-.0019531-15.2451172,8.4492188-.0019531-.0009766,15.2460938ZM61.0439453,55.5615234c1.5644531-.65625,3.3359375-1.4052734,3.6894531-1.0595703.1542969.1533203.2333984.3271484.2333984.515625,0,.347229-.2142944.6919556-.3358765.8618774l-.2334595.1068726c-.21875.0986328-.4453125.2011719-.71875.3330078-2.3808594,1.1132812-5.6005859,2.6191406-10.3173828,3.8144531.109375-.5195312.1240234-1.0517578.0400391-1.5546875-.0202637-.109314-.0650635-.2207642-.0946045-.331543,3.3354492-.8158569,5.9736938-1.9338379,7.7371826-2.6860352ZM66.8476562,59.3232422l-.0117188.0078125c-17.4980469,13.4101562-39.3232422,8.0185547-44.2919922,6.5351562v-13.6464844c8.6381836-.0908203,11.59375,1.7998047,14.2172852,3.4794922,2.7890625,1.7929688,5.1987305,3.3388672,12.449707,2.2460938.7929688-.1152344,1.7705078-.0371094,1.9472656,1.0224609.0175781.1005859.0283203.1992188.0283203.2988281,0,.6728516-.3828125,1.4335938-1.0253906,1.5761719l-.1103516.0087891c-.0048828.0010376-.0083008.0044556-.0131226.0055542-2.9473877.5296631-8.9960938,1.0483398-13.1831665-.3424683-.2822266-.0966797-.5888672-.078125-.8618164.0546875-.2719727.1347656-.4829102.3759766-.5771484.6611328-.0961914.2880859-.0742188.5947266.0615234.8662109s.3696289.4736328.6577148.5683594c2.0258789.671875,4.5185547,1.0126953,7.4091797,1.0126953,3.4716797,0,6.3925781-.4960938,6.9423828-.5957031.0007935-.0001221.0012817-.0007324.0020752-.0008545.0006714-.0001221.0011597,0,.0018311-.0001221,6.9199219-1.3037109,11.3007812-3.3671875,14.1953125-4.7304688l1.1243286-.5169067c.0008545-.0003662.00177-.0003052.0026245-.0006714.0007935-.0003662.0010986-.0010376.0018921-.0014038.368042-.168335,1.4848022-.6812134,1.9854126-.6939087.1416016.1210938.3759766.3535156.3564453.5771484-.0195312.4521484-.6884766,1.1660156-1.3085938,1.6083984ZM19.0869141,63.6835938c0,.8974609-.7299805,1.6269531-1.6269531,1.6269531s-1.6269531-.7294922-1.6269531-1.6269531.7299805-1.6269531,1.6269531-1.6269531,1.6269531.7294922,1.6269531,1.6269531ZM70.4296875,35.512207c0,5.043457-1.4492188,9.9321289-4.1904297,14.137207-.2089844.3232422-.5644531.515625-.9511719.515625-.2207031,0-.4355469-.0634766-.6191406-.1845703-.2519531-.1630859-.4267578-.4179688-.4902344-.7148438-.0625-.296875-.0058594-.5996094.1611328-.8535156,2.5-3.8369141,3.8222656-8.2978516,3.8222656-12.8999023,0-13.0444336-10.6123047-23.65625-23.6572266-23.65625-13.0444336,0-23.6567383,10.6118164-23.6567383,23.65625,0,3.8330078.9370117,7.6391602,2.7099609,11.0073242.1416016.2675781.1699219.5742188.0800781.8642578-.0898438.2890625-.2871094.5263672-.5556641.6669922-.2685547.1416016-.5766602.1679688-.8666992.0791016-.2890625-.0908203-.5253906-.2880859-.6650391-.5556641-1.9438477-3.6894531-2.9716797-7.8608398-2.9716797-12.0620117,0-14.2949219,11.6303711-25.925293,25.9257812-25.925293,14.2949219,0,25.9248047,11.6303711,25.9248047,25.925293ZM51.0576172,23.109375c-2.4882812,0-4.9003906,1.0839844-6.5527344,2.921875-1.6533203-1.8378906-4.065918-2.921875-6.5532227-2.921875-4.8232422,0-8.7475586,3.8637695-8.7475586,8.612793,0,9.3520508,14.1162109,17.925293,14.7158203,18.284668.1757812.1064453.3779297.1621094.5849609.1621094s.4091797-.0556641.5830078-.1611328c.6015625-.3603516,14.7167969-8.9326172,14.7167969-18.2856445,0-4.7490234-3.9238281-8.612793-8.7470703-8.612793ZM57.5371094,31.722168c0,7.0820312-10.3740234,14.2504883-13.0322266,15.9711914-2.6582031-1.7207031-13.0317383-8.8891602-13.0317383-15.9711914,0-3.4980469,2.90625-6.34375,6.4785156-6.34375,2.2792969,0,4.4174805,1.2016602,5.581543,3.1357422.1972656.3286133.5605469.5249023.9716797.5249023h.0009766c.4111328,0,.7734375-.1967773.9697266-.5249023,1.1640625-1.934082,3.3027344-3.1357422,5.5820312-3.1357422,3.5722656,0,6.4794922,2.8457031,6.4794922,6.34375Z"/>
</svg>