<svg id="Warstwa_1" xmlns="http://www.w3.org/2000/svg" version="1.1" viewBox="0 0 80 80">
  <path id="_x36_" d="M48.6269531,42.6375122c-.7272949-.3740234-1.5617676-.6018677-2.4835205-.6465454-1.7700195-.0858765-3.8719482.5141602-6.1432495,2.0841675-2.2714233-1.5698853-4.3734741-2.1700439-6.1434937-2.0841675-.9215698.0446777-1.7561035.272522-2.4835205.6465454-.7371216.3787231-1.3605957.90625-1.8512573,1.5443115-.8605347,1.1195068-1.3057251,2.5688477-1.2294922,4.1403809.22052,4.5498657,4.1348877,8.0361328,8.2316284,11.6845703.9151001.8151855,1.8397217,1.6387939,2.6760864,2.4290771l.0084839.0078125c.4411011.4156494,1.1358032.4208374,1.5830078,0,.8388672-.7930298,1.7667236-1.6193237,2.6847534-2.4368896,4.0963135-3.6486206,8.0106812-7.1347046,8.2312622-11.6845703.0761719-1.5715332-.3687744-3.020874-1.2294922-4.1403809-.4909668-.6380615-1.1143188-1.1655884-1.8511963-1.5443115ZM41.9384155,58.2790527c-.6396484.569397-1.2841187,1.1433105-1.9382324,1.7446899-.6543579-.6013794-1.2987671-1.1751709-1.9382324-1.7446899-3.7278442-3.3197632-7.2897339-6.4921265-7.4630127-10.0654297-.0492554-1.0171509.2224731-1.93396.7504883-2.6206055.2861938-.3724365.6508179-.680481,1.0819702-.9022217.4408569-.2265015.9558105-.3651733,1.5339966-.3931274,1.4473877-.0701294,3.2672119.5341797,5.3291016,2.1196899.4290771.3313599,1.0178223.3135986,1.4238281-.0095215,2.0567017-1.5783691,3.8720703-2.1802979,5.3167114-2.1101685.578064.0279541,1.0927124.166626,1.5336914.3931274.4310303.2217407.7956543.5297852,1.0818481.9022217.5280151.6866455.7997437,1.6035767.7504883,2.6206055-.1734009,3.5733032-3.7350464,6.7454224-7.4626465,10.0654297ZM40,31.684082c3.0224609,0,5.8652344-1.1772461,8.0029297-3.3149414,2.1367188-2.1376953,3.3144531-4.9799805,3.3144531-8.0024414s-1.1777344-5.8647461-3.3144531-8.0024414c-2.1386719-2.1376953-4.9804688-3.3144531-8.0029297-3.3144531-3.0229492,0-5.8647461,1.1767578-8.0019531,3.3144531-2.1376953,2.1376953-3.3149414,4.9794922-3.3149414,8.0024414s1.1772461,5.8647461,3.3149414,8.0024414,4.9794922,3.3149414,8.0019531,3.3149414ZM30.9394531,20.3666992c0-2.4204102.9423828-4.6958008,2.6533203-6.4072266,1.7114258-1.7109375,3.9873047-2.6533203,6.4072266-2.6533203,2.4208984,0,4.6962891.9423828,6.40625,2.6533203,1.7119141,1.7119141,2.6542969,3.9873047,2.6542969,6.4072266,0,2.4204102-.9423828,4.6958008-2.6542969,6.4072266-1.7109375,1.7114258-3.9853516,2.6538086-6.40625,2.6538086-2.4199219,0-4.6953125-.9423828-6.4072266-2.6538086-1.7109375-1.7109375-2.6533203-3.9863281-2.6533203-6.4072266ZM73.5419922,26.8369141l-.0527344.0654297-16.3652344,19.0722656v23.8349609c0,.6289062-.5117188,1.1416016-1.140625,1.1416016s-1.140625-.5126953-1.140625-1.1416016v-24.2529297c0-.3017578.1171875-.5869141.3300781-.8017578l16.5722656-19.3134766c1.5029297-1.9492188,2.0683594-4.015625,1.5478516-5.6625977-.1787109-.5629883-.4833984-1.0493164-.8808594-1.4052734-.3955078-.3549805-.8945312-.5922852-1.4423828-.6860352-1.5722656-.2734375-3.3925781.559082-5.1347656,2.3330078-3.4726562,3.472168-7.0234375,6.9829102-10.4570312,10.3779297-1.7158203,1.6962891-3.4306641,3.3925781-5.1435547,5.090332-.1777344.1777344-.4052734.2890625-.6513672.3212891v.0097656l-.1503906.0029297-19.015625-.0126953c-.2460938-.0322266-.4736328-.1435547-.6523438-.3217773-1.7250977-1.7099609-3.453125-3.4189453-5.1816406-5.1279297-3.4208984-3.3828125-6.9584961-6.8808594-10.4165039-10.3388672-1.7431641-1.7749023-3.5678711-2.6054688-5.1362305-2.3339844-.5478516.09375-1.046875.3310547-1.4433594.6860352-.3969727.3564453-.7011719.8422852-.8793945,1.4052734-.5214844,1.6474609.0444336,3.7133789,1.5517578,5.668457l16.5751953,19.3154297c.2055664.2070312.3222656.4921875.3222656.7939453v24.2529297c0,.6289062-.5112305,1.1416016-1.1401367,1.1416016s-1.1401367-.5126953-1.1401367-1.1416016v-23.8349609L6.4594727,26.8374023c-1.9726562-2.5566406-2.6748047-5.3789062-1.9257812-7.7451172.2983398-.9433594.8305664-1.7773438,1.5380859-2.4121094.71875-.644043,1.6088867-1.0722656,2.574707-1.2382812,2.3222656-.3994141,4.8569336.6586914,7.137207,2.9794922l15.2485352,15.1210938h17.9355469l15.25-15.1225586c2.2783203-2.3188477,4.8154297-3.3769531,7.1357422-2.9780273.9658203.1660156,1.8564453.5942383,2.5751953,1.2382812.7060547.6337891,1.2382812,1.4682617,1.5371094,2.4121094.7490234,2.3647461.0478516,5.1875-1.9238281,7.7446289Z"/>
</svg>