<?xml version="1.0" encoding="UTF-8"?>
<svg id="Layer_1" data-name="Layer 1" xmlns="http://www.w3.org/2000/svg" viewBox="0 0 226.55 227.32">
  <defs>
    <style>
      .cls-1 {
        fill: #002e46;
      }

      .cls-2 {
        fill: #aec90b;
      }

      .cls-3 {
        fill: #00b9ed;
      }
    </style>
  </defs>
  <path class="cls-1" d="M106.54,33.96h13.06c1.44,0,2.62-1.17,2.62-2.61s-1.18-2.61-2.62-2.61h-13.06v5.23ZM106.54,46.66h13.45c1.65,0,2.98-1.34,2.98-2.99s-1.33-2.99-2.98-2.99h-13.45v5.98ZM127.55,37.04c1.77,1.73,2.88,4.15,2.88,6.82,0,5.25-4.25,9.52-9.51,9.53h-21.85v-31.37h21.49c5.04,0,9.13,4.1,9.13,9.15,0,2.24-.81,4.29-2.14,5.88"/>
  <path class="cls-1" d="M132.58,90.74h-8.02l-2.53-5.23h-17.55l-2.53,5.23h-8.01l15.68-31.36h7.27l15.68,31.36ZM113.26,67.4l-5.51,11.39h11.01l-5.51-11.39Z"/>
  <polygon class="cls-1" points="123.91 97.46 132.9 97.46 116.99 117.89 116.99 128.83 109.52 128.83 109.52 117.89 93.62 97.46 102.61 97.46 113.26 111.75 123.91 97.46"/>
  <polygon class="cls-1" points="165.5 97.46 165.5 104.19 144.59 104.19 144.59 109.41 164.75 109.41 164.75 116.13 144.59 116.13 144.59 122.11 165.5 122.11 165.5 128.83 137.12 128.83 137.12 97.46 165.5 97.46"/>
  <path class="cls-1" d="M188.56,116.88h-5.6v11.95h-7.47v-31.36h19.07c5.35.02,9.68,4.36,9.68,9.72,0,4.42-2.92,8.15-6.97,9.32l9.2,12.33h-8.96l-8.96-11.95ZM193.81,104.19h-10.85v5.97h10.85c1.64,0,2.97-1.34,2.97-2.99s-1.33-2.98-2.97-2.99"/>
  <path class="cls-1" d="M97.1,128.83h-8.02l-2.52-5.23h-17.55l-2.53,5.23h-8.01l15.68-31.36h7.27l15.68,31.36ZM77.78,105.49l-5.51,11.39h11.02l-5.51-11.39Z"/>
  <path class="cls-1" d="M30.42,109.43h13.07c1.44,0,2.62-1.17,2.62-2.61s-1.18-2.61-2.62-2.61h-13.07v5.23ZM30.42,122.13h13.45c1.65,0,2.98-1.34,2.98-2.99s-1.33-2.99-2.98-2.99h-13.45v5.98ZM51.43,112.51c1.78,1.73,2.88,4.15,2.88,6.82,0,5.25-4.26,9.51-9.5,9.53h-21.85v-31.37h21.49c5.04,0,9.13,4.1,9.13,9.15,0,2.24-.81,4.29-2.14,5.88"/>
  <polygon class="cls-1" points="127.45 135.55 127.45 142.27 106.54 142.27 106.54 147.5 126.7 147.5 126.7 154.21 106.54 154.21 106.54 160.19 127.45 160.19 127.45 166.91 99.07 166.91 99.07 135.55 127.45 135.55"/>
  <path class="cls-1" d="M122.21,184.1c0-1.64-1.32-2.97-2.96-2.99h-12.71v5.97h12.71c1.64-.02,2.96-1.35,2.96-2.98M99.07,205.75v-31.37h20.95c5.34.04,9.65,4.37,9.65,9.72,0,4.07-2.5,7.55-6.04,9.01l9.42,12.64h-8.96l-8.96-11.94h-8.59v11.94h-7.47Z"/>
  <path class="cls-2" d="M226.44,106.64C222.81,47.29,173.53.27,113.27.27S3.74,47.29.11,106.64c.14,2.38.36,4.74.65,7.08,2.45,19.74,9.97,37.9,21.23,53.15,20.65,27.98,53.84,46.13,91.29,46.13-52.41,0-95.47-40.81-99.09-92.31-.16-2.32-.25-4.66-.25-7.03s.09-4.71.25-7.02C17.8,55.13,60.86,14.32,113.27,14.32c37.45,0,70.65,18.16,91.29,46.15,11.26,15.27,18.78,33.47,21.22,53.24.28,2.3.51,4.63.65,6.97.14-2.33.23-4.67.23-7.03s-.08-4.7-.23-7.02"/>
  <path class="cls-3" d="M.11,120.69c3.63,59.35,52.9,106.36,113.16,106.36s109.54-47.01,113.16-106.36c-.14-2.38-.36-4.74-.65-7.08-2.45-19.74-9.98-37.9-21.23-53.15-20.65-27.98-53.85-46.13-91.29-46.13,52.41,0,95.47,40.8,99.09,92.31.16,2.32.25,4.66.25,7.03s-.09,4.7-.25,7.02c-3.62,51.51-46.67,92.31-99.09,92.31-37.45,0-70.65-18.16-91.29-46.15C10.72,151.58,3.19,133.38.76,113.61c-.29-2.3-.51-4.62-.65-6.97-.14,2.32-.22,4.66-.22,7.03s.08,4.7.22,7.02"/>
</svg>