<svg width="28" height="28" viewBox="0 0 28 28" fill="none" xmlns="http://www.w3.org/2000/svg">
<path d="M3.50049 3.5H3.81356C4.3663 3.5 4.64316 3.5 4.8686 3.59972C5.06737 3.68765 5.23731 3.82921 5.35986 4.00871C5.49863 4.21197 5.54874 4.48338 5.64876 5.02515L8.1672 18.6667L20.3259 18.6667C20.8547 18.6667 21.1198 18.6667 21.3389 18.5732C21.5323 18.4907 21.6992 18.3571 21.8231 18.1871C21.9632 17.9949 22.0226 17.7376 22.1412 17.2236L22.1421 17.22L23.9729 9.28662L23.9732 9.28496C24.1532 8.50518 24.2434 8.11435 24.1443 7.80778C24.0574 7.53879 23.8746 7.31073 23.632 7.16557C23.3553 7 22.9556 7 22.154 7H6.41715M21.0005 24.5C20.3562 24.5 19.8338 23.9777 19.8338 23.3333C19.8338 22.689 20.3562 22.1667 21.0005 22.1667C21.6448 22.1667 22.1672 22.689 22.1672 23.3333C22.1672 23.9777 21.6448 24.5 21.0005 24.5ZM9.33382 24.5C8.68949 24.5 8.16715 23.9777 8.16715 23.3333C8.16715 22.689 8.68949 22.1667 9.33382 22.1667C9.97815 22.1667 10.5005 22.689 10.5005 23.3333C10.5005 23.9777 9.97815 24.5 9.33382 24.5Z" stroke="#353535" stroke-width="2" stroke-linecap="round" stroke-linejoin="round"/>
</svg>
