<svg width="19" height="19" viewBox="0 0 19 19" fill="none" xmlns="http://www.w3.org/2000/svg">
<path d="M7.77896 9.40195L7.78978 9.41184C7.78978 9.41184 7.79059 9.41184 7.79059 9.41266L9.60202 11.0653L11.3862 9.43615L11.4531 9.37517L16.6898 4.59396C16.6469 4.58655 16.6036 4.58325 16.5599 4.58325H2.64016C2.59646 4.58325 2.55315 4.58655 2.51025 4.59396L7.77535 9.39865C7.77535 9.39865 7.77735 9.40071 7.77856 9.40195H7.77896Z" fill="white"/>
<path d="M1.70748 5.39404C1.70233 5.4315 1.69995 5.46936 1.69995 5.50802V14.5884C1.69995 14.6298 1.70312 14.6713 1.70866 14.712L6.5615 9.77674L1.70748 5.39404Z" fill="white"/>
<path d="M9.93252 11.9497C9.8378 12.0387 9.71981 12.0833 9.60141 12.0833C9.48302 12.0833 9.36463 12.0387 9.27031 11.9497L7.46993 10.2549L2.51025 15.5122C2.55079 15.5186 2.59172 15.5216 2.63346 15.5216H16.567C16.6079 15.5216 16.6492 15.5182 16.6898 15.5118L11.7317 10.2562L9.93332 11.9493L9.93252 11.9497Z" fill="white"/>
<path d="M17.4924 5.39404L12.6384 9.77795L17.4913 14.712C17.4972 14.6713 17.5 14.6302 17.5 14.5884V5.50802C17.5 5.46936 17.4972 5.4315 17.4921 5.39404H17.4924Z" fill="white"/>
</svg>
